<svg width="30" height="30" viewBox="0 0 30 30" fill="none" xmlns="http://www.w3.org/2000/svg">
<g clip-path="url(#clip0_104_58)">
<path d="M28.6799 15.82C30.7343 11.0418 29.0969 5.34099 24.5761 2.43738C20.0542 -0.466991 14.1869 0.416015 10.6962 4.27423C10.6312 4.35995 9.63701 5.71768 11.1513 6.69028L26.2917 16.4148C27.7986 17.3827 28.6659 15.8452 28.6799 15.82Z" fill="#4E901E"/>
<path d="M15.3809 4.2737C16.9214 2.57103 18.9249 1.4482 21.0713 0.974178C17.3263 0.14291 13.3332 1.35902 10.6962 4.2737C10.6312 4.35943 9.63701 5.71716 11.1513 6.68975L26.2917 16.4143C27.7985 17.3821 28.6658 15.8447 28.6799 15.8196C28.78 15.5868 28.871 15.3518 28.9536 15.115L15.836 6.68975C14.3217 5.71716 15.3159 4.35943 15.3809 4.2737Z" fill="#47821C"/>
<path d="M23.5838 3.98238C19.4096 1.30131 13.8324 2.51607 11.1513 6.69028L26.2917 16.4148C28.9729 12.2406 27.758 6.66344 23.5838 3.98238Z" fill="#FFEB99"/>
<path d="M25.4228 5.54841C24.8951 4.95907 24.281 4.43009 23.5838 3.98238C19.4096 1.30131 13.8324 2.51607 11.1513 6.69028L13.1893 7.9992C18.0306 0.963515 25.4248 5.57401 25.4228 5.54841Z" fill="#FFE477"/>
<path d="M23.5838 3.98238C22.2062 3.09755 20.6759 2.6373 19.1472 2.56751L18.7215 11.5526L26.7157 7.42868C26.0164 6.06749 24.9614 4.8672 23.5838 3.98238Z" fill="#FFE477"/>
<path d="M19.1472 2.56746L19.0721 4.15236C22.4691 3.7279 25.424 5.56458 25.4228 5.54841C25.4226 5.54811 25.4224 5.54782 25.4221 5.54759C24.8947 4.95855 24.2807 4.42997 23.5838 3.98238C22.2062 3.09755 20.6758 2.6373 19.1472 2.56746Z" fill="#FFDA44"/>
<path d="M25.4272 14.2545C25.1992 14.162 25.0675 13.9245 25.1452 13.691C25.495 12.6398 25.5795 11.5027 25.3893 10.4027C25.3473 10.1602 25.5099 9.92969 25.7524 9.88779C25.9948 9.8459 26.2254 10.0084 26.2673 10.2509C26.4825 11.4953 26.3868 12.7821 25.9906 13.9724C25.9286 14.1593 25.7509 14.3857 25.4272 14.2545Z" fill="#FFE477"/>
<path d="M20.0468 7.46881H2.099C2.099 7.46881 0.117946 7.52108 0.493062 9.92998L3.21837 27.4298C3.21855 27.4308 3.56841 29.281 5.4652 29.281H16.6804C18.5773 29.281 18.9271 27.4308 18.9273 27.4298L21.6526 9.92998C22.0277 7.52108 20.0468 7.46881 20.0468 7.46881Z" fill="#D1E7F8"/>
<path d="M8.80271 27.4298L6.0774 9.92998C5.70223 7.52114 7.68334 7.46881 7.68334 7.46881H2.09901C2.09901 7.46881 0.118022 7.52108 0.49308 9.92998L3.21839 27.4298C3.21856 27.4308 3.56843 29.281 5.46522 29.281H11.0495C9.15275 29.281 8.80301 27.4308 8.80271 27.4298Z" fill="#B9D8F4"/>
<path d="M18.333 9.76375H3.8127C3.8127 9.76375 2.79153 9.77254 2.96403 10.8783C3.46699 14.1012 4.91531 23.3812 5.35336 26.1779C5.37135 26.2873 5.51689 26.9855 6.30685 26.9855H15.8389C16.6288 26.9855 16.7744 26.2873 16.7924 26.1779C17.2304 23.3811 18.6787 14.1012 19.1817 10.8783C19.3542 9.77254 18.333 9.76375 18.333 9.76375Z" fill="#FFE477"/>
<path d="M9.86841 26.1779C9.43037 23.3811 7.98205 14.1012 7.47908 10.8783C7.30664 9.77254 8.32775 9.76375 8.32775 9.76375H3.81282C3.81282 9.76375 2.79165 9.7726 2.96415 10.8783C3.46712 14.1013 4.91543 23.3812 5.35348 26.1779C5.37147 26.2873 5.51701 26.9855 6.30697 26.9855H10.822C10.0319 26.9854 9.88634 26.2872 9.86841 26.1779Z" fill="#FFDA44"/>
<path d="M12.7727 14.9993C13.3469 14.9993 13.8123 14.5338 13.8123 13.9596C13.8123 13.3855 13.3469 12.92 12.7727 12.92C12.1986 12.92 11.7331 13.3855 11.7331 13.9596C11.7331 14.5338 12.1986 14.9993 12.7727 14.9993Z" fill="#FFDA44"/>
<path d="M14.852 18.8138C15.4261 18.8138 15.8916 18.3484 15.8916 17.7742C15.8916 17.2 15.4261 16.7346 14.852 16.7346C14.2778 16.7346 13.8123 17.2 13.8123 17.7742C13.8123 18.3484 14.2778 18.8138 14.852 18.8138Z" fill="#FFDA44"/>
<path d="M12.0895 22.913C12.6637 22.913 13.1291 22.4475 13.1291 21.8734C13.1291 21.2992 12.6637 20.8337 12.0895 20.8337C11.5154 20.8337 11.0499 21.2992 11.0499 21.8734C11.0499 22.4475 11.5154 22.913 12.0895 22.913Z" fill="#FFDA44"/>
<path d="M18.1222 17.6657C17.8792 17.6276 17.6513 17.7941 17.6133 18.0372L17.5385 18.5163C17.4661 18.9897 17.9564 19.0306 17.9792 19.0306C18.195 19.0306 18.3846 18.8735 18.4189 18.6536L18.4937 18.1746C18.5318 17.9316 18.3654 17.7037 18.1222 17.6657Z" fill="black"/>
<path d="M18.333 9.3182H3.80888C3.74443 9.31873 3.16793 9.33643 2.79158 9.77986C2.6182 9.98412 2.43105 10.3524 2.52375 10.947C3.10049 14.6425 4.48775 23.5312 4.91367 26.2502C5.01035 26.838 5.47857 27.4311 6.30679 27.4311H15.8388C16.6671 27.4311 17.1353 26.838 17.2325 26.2469C17.4223 25.0345 17.8021 22.6038 18.2124 19.9762C18.2503 19.733 18.084 19.5052 17.8409 19.4673C17.5977 19.4291 17.3699 19.5956 17.3319 19.8388C16.9217 22.4661 16.5419 24.8967 16.3526 26.1057C16.3259 26.2679 16.2237 26.54 15.8388 26.54H6.30685C5.92195 26.54 5.8197 26.2679 5.79357 26.1091C5.36824 23.3936 3.98092 14.5051 3.40424 10.8098C3.38197 10.6669 3.37506 10.4727 3.46869 10.3594C3.57721 10.2281 3.79693 10.2109 3.82002 10.2095H18.3291C18.3314 10.2095 18.5625 10.2245 18.6747 10.3567C18.7517 10.4474 18.7742 10.5999 18.7415 10.8098L17.8212 16.706C17.7832 16.9491 17.9496 17.177 18.1927 17.215C18.4355 17.2532 18.6637 17.0866 18.7016 16.8435L19.6219 10.9471C19.7147 10.3526 19.5275 9.98436 19.3541 9.78004C18.9778 9.33643 18.4013 9.31873 18.333 9.3182Z" fill="black"/>
<path d="M29.5204 8.29739C28.7475 5.72847 27.0772 3.51421 24.817 2.0625C22.5561 0.610429 19.847 0.0123051 17.1887 0.378457C14.5599 0.740565 12.1368 2.01791 10.3658 3.97529C10.3658 3.97529 8.89655 5.54852 10.8481 7.02333L2.09899 7.02327C2.09899 7.02327 1.1193 7.05719 0.507876 7.79055C0.0612164 8.32633 -0.0918887 9.06918 0.0528375 9.99848L2.77814 27.4983L2.78055 27.5121C2.92475 28.278 3.67129 29.7265 5.46531 29.7265H16.6804C18.4744 29.7265 19.221 28.278 19.3652 27.5122L19.3665 27.5053L21.4913 13.8611L26.0509 16.7897C28.1149 18.0293 29.0892 15.9961 29.0892 15.9961C30.1315 13.5718 30.2846 10.8377 29.5204 8.29739ZM19.0019 6.088C19.2383 6.088 19.4353 5.9022 19.4466 5.66354L19.5707 3.04423C20.8744 3.1722 22.1673 3.60204 23.3431 4.35726C24.5195 5.11288 25.4485 6.1105 26.1071 7.24358L22.1455 9.35137C22.145 8.71885 21.9754 8.19549 21.6379 7.79061C21.0264 7.05719 20.0978 7.0245 20.0585 7.02344L12.494 7.02338C12.4927 7.02251 12.4915 7.02157 12.4902 7.02063L11.7768 6.56243C13.4203 4.27224 16.0224 3.02091 18.6805 3.00392L18.5565 5.6213C18.5565 6.08835 18.9948 6.088 19.0019 6.088ZM18.4886 27.3511C18.4635 27.4696 18.1415 28.8355 16.6804 28.8355H5.46525C3.9976 28.8355 3.67926 27.4572 3.65717 27.3519L0.933324 9.86143C0.830434 9.20072 0.915746 8.69823 1.18692 8.36782C1.52231 7.95907 2.06576 7.91717 2.10807 7.91448H20.038C20.0835 7.91711 20.6162 7.95702 20.9534 8.36125C21.2288 8.6916 21.3159 9.19633 21.2124 9.86143L18.4886 27.3511ZM22.0266 10.4239L26.5137 8.03664C27.6029 10.4606 27.5467 13.3465 26.1479 15.7929L21.6412 12.8983L22.0266 10.4239ZM28.2818 15.6178C27.8475 16.351 27.1169 16.2958 26.9233 16.232C28.0828 14.2043 28.4458 11.8486 27.9439 9.54385C27.4065 7.07671 25.9436 4.96845 23.8246 3.60749C19.5826 0.882948 13.9603 1.99189 11.0533 6.04206C10.9011 5.88268 10.4411 5.27853 11.0421 4.55595C14.4618 0.792948 20.0484 0.0588286 24.3353 2.81232C28.619 5.5637 30.2757 10.9453 28.2818 15.6178Z" fill="black"/>
</g>
<defs>
<clipPath id="clip0_104_58">
<rect width="30" height="30" fill="white"/>
</clipPath>
</defs>
</svg>
