<svg width="512" height="176" viewBox="0 0 512 176" fill="none" xmlns="http://www.w3.org/2000/svg">
<g clip-path="url(#clip0_858_239)">
<path d="M21.6 42.0032H16.347C12.26 42.5832 8.757 42.0032 5.254 40.2632C2.919 39.1032 1.168 37.3632 0.584 35.0432C0 33.3032 0 30.9832 0 29.2432C0 27.5032 0.584 25.7632 0.584 24.6022C4.67 25.1822 8.174 25.7622 12.26 25.7622C16.347 25.7622 21.6 26.3422 25.104 26.3422H39.699C39.699 22.2822 39.115 17.6422 37.948 13.5822C37.364 10.6812 36.196 7.78124 35.612 4.88124C38.532 4.30124 41.45 3.72124 44.953 3.14124C48.456 2.56124 51.959 2.56124 55.462 3.14124C58.381 3.72124 61.3 4.88124 63.635 7.20124C65.97 9.52124 67.138 13.0012 66.555 16.4812C66.555 19.9612 65.97 23.4412 65.386 26.3422H91.074C96.328 26.3422 99.831 28.6622 99.831 33.8822C99.831 39.1032 97.496 41.4232 91.658 41.4232H29.774C29.19 42.0032 23.935 42.0032 21.6 42.0032ZM93.993 80.8662C94.577 71.0062 89.906 61.1452 81.733 55.9242C72.393 50.1242 61.883 47.2242 51.375 47.2242C40.867 47.2242 30.358 50.1242 21.601 55.9242C13.428 61.7242 8.757 71.0052 9.341 80.8662C8.757 90.7262 13.428 100.587 21.017 106.968C29.774 113.348 40.867 116.828 51.375 116.248C61.884 116.828 72.392 113.348 81.149 106.968C89.323 101.168 93.993 91.3072 93.993 80.8662ZM67.722 80.8662C68.306 86.0862 66.554 90.7262 63.052 94.7872C57.213 101.167 47.872 101.747 41.45 95.9472L40.283 94.7872C36.78 90.7272 35.613 86.0872 35.613 80.8662C35.028 75.6462 36.78 70.4262 39.699 66.3652C42.618 63.4652 47.289 61.7252 51.375 61.7252C56.045 61.7252 60.132 63.4652 63.051 66.3652C65.971 71.0052 67.722 76.2252 67.722 80.8662ZM127.854 55.9242H140.698V23.4422C140.698 19.9622 140.114 16.4822 139.53 13.0022C138.946 9.52124 138.362 6.04124 137.195 2.56024C140.114 1.98024 143.033 1.40024 145.952 1.40024C149.455 1.40024 152.374 1.40024 155.877 1.98024C158.796 1.98024 161.715 3.72024 164.05 6.62024C165.801 9.52024 166.385 13.0012 166.385 16.4812V133.07C166.385 137.13 165.218 140.61 162.299 144.09C159.963 146.99 156.461 148.73 152.374 148.73H147.12C145.368 148.73 144.2 148.15 143.033 147.57C141.865 146.41 141.282 144.67 141.865 142.93V73.3252H128.438V131.33C128.438 135.39 127.27 138.87 124.351 142.35C122.016 145.25 118.513 146.99 115.011 146.99H110.34C108.588 146.99 107.42 146.41 105.67 145.83C104.502 144.67 103.918 142.93 103.918 141.19V26.3422C103.918 22.8622 103.334 19.3822 102.75 15.9022C102.166 11.8422 100.999 8.36124 99.831 4.88124C103.334 4.30124 106.253 3.72124 109.172 3.72124C112.092 3.72124 115.01 3.72124 117.929 4.30124C121.432 4.30124 124.351 6.04124 126.103 8.94124C127.853 11.8412 128.438 15.3212 128.438 18.8012V28.0822C128.438 31.5622 127.854 34.4622 127.854 36.7822V55.9242ZM337.441 6.04024C335.69 3.14024 332.771 1.40024 329.851 0.820244C326.349 0.240244 322.262 -0.339756 318.759 0.240244C315.256 0.820244 311.753 0.820244 308.251 1.40024C309.418 4.88024 310.586 8.36024 311.17 12.4212C311.753 15.9012 312.337 19.3812 312.337 22.8612V90.7272C306.499 94.2072 300.077 95.9472 293.072 96.5272C290.152 97.1072 286.65 97.1072 283.147 97.6872L284.898 29.2422H290.736C293.072 29.2422 295.406 28.0822 297.742 26.3422C298.91 25.1822 300.077 22.8622 300.077 21.1222C300.077 18.8022 299.493 17.0622 297.742 15.9022C295.991 14.1622 293.072 13.0022 290.736 13.5822H217.76C214.257 13.5822 209.003 13.5822 204.917 13.0022C200.83 12.4222 196.743 12.4222 193.24 11.8422C193.24 13.0022 192.657 14.7422 192.657 16.4822C192.657 18.2222 192.657 19.9622 193.24 21.7022C194.408 24.0222 196.16 26.3422 198.495 27.5022C201.998 29.2422 205.5 29.8222 209.003 29.2422L210.171 98.2672C207.251 98.2672 204.333 98.2672 200.83 97.6872C197.327 97.1072 192.657 97.1072 189.154 96.5272C189.154 97.6872 189.154 99.4272 188.57 101.747C188.57 103.487 188.57 105.227 189.154 106.967C190.321 109.288 192.073 111.608 194.408 112.768C197.911 114.508 201.998 115.668 206.084 115.088H262.13C273.222 115.088 284.314 114.508 295.407 112.768C301.829 111.608 307.667 109.288 312.921 105.808V143.511C312.921 145.251 313.505 146.991 314.672 148.151C315.84 149.311 317.592 149.891 319.342 149.311H326.349C330.435 149.311 333.939 147.571 336.857 144.091C339.192 141.191 340.944 137.13 340.944 133.07V15.3222C339.776 12.4222 338.609 8.94024 337.441 6.04024ZM256.291 97.6872H235.858L234.691 28.6622H257.459L256.291 97.6872Z" fill="#1DBF49"/>
<path d="M482.81 102.328V126.109C482.81 127.849 483.393 129.009 484.56 130.169C485.728 131.329 487.48 131.909 489.231 131.329H496.237C500.323 131.329 503.827 129.589 506.161 126.689C508.497 123.789 509.664 119.729 509.664 116.249V15.9019C509.664 12.4219 509.08 9.52095 507.913 6.62095C506.161 4.30095 503.243 2.56095 500.323 1.98095C496.821 0.819946 493.318 0.819946 489.815 0.819946C486.312 0.819946 483.393 1.39995 479.89 1.97995C481.058 5.45995 482.225 8.93995 482.81 12.4199C483.393 15.8999 483.393 19.3799 483.393 22.2799C482.809 22.2799 482.809 102.327 482.809 102.327L482.81 102.328ZM509.664 162.652C507.913 160.912 505.578 160.332 502.659 160.332H446.613C442.526 160.332 439.607 159.752 439.023 158.012C437.856 155.692 437.273 153.372 437.856 151.051V131.33C437.856 127.85 437.272 124.37 434.936 121.469C432.602 119.149 429.683 117.409 426.764 116.829C423.261 116.249 419.758 115.669 416.255 116.249C412.752 116.249 409.249 116.829 405.746 117.409C406.914 120.309 408.082 123.789 408.666 127.269C409.249 130.169 409.249 133.649 409.249 136.55V157.431C408.666 163.231 411.001 169.032 416.255 171.933C420.342 174.253 424.428 175.413 428.515 175.413H502.659C504.994 175.413 507.329 174.833 509.664 173.093C510.832 171.933 512 169.613 512 167.873C512 166.133 510.832 164.392 509.664 162.652ZM430.266 77.966C430.266 80.2859 429.683 82.6059 428.515 84.3459C426.764 86.0859 425.012 86.6659 422.677 86.6659H405.163C402.827 86.6659 401.076 86.0859 399.908 84.3459C398.741 82.6059 398.157 80.8659 398.157 78.5459V55.9239H430.85L430.266 77.966ZM451.867 96.5269C455.954 93.0469 457.705 87.8269 457.705 82.6069V23.4409C457.705 19.9609 457.122 15.9009 455.37 12.4209C453.619 9.51995 450.7 7.19995 447.197 6.61995C443.694 6.03995 439.607 5.45995 436.104 6.03995C432.602 6.03995 430.266 6.61995 426.764 7.19995C427.931 10.0999 429.099 12.9999 429.683 15.8999C430.266 19.3799 430.85 22.8599 430.85 26.3409V39.6819H398.157V32.1419C398.157 30.9819 398.741 25.1809 398.741 24.0209C399.325 20.5409 398.157 17.0609 396.406 13.5809C394.654 10.6799 391.151 8.93995 388.232 8.35995C384.729 7.77995 381.227 7.77995 377.724 7.77995C374.221 8.35995 371.886 8.35995 368.383 8.93995C369.55 12.4199 370.718 15.8999 371.302 19.9599C371.886 23.4399 371.886 26.9209 372.469 30.4009V82.6049C372.469 87.8249 374.221 93.0449 378.308 96.5259C381.81 99.4259 386.481 101.166 391.735 101.166H440.775C443.694 101.746 448.365 100.007 451.867 96.5269Z" fill="#14A03A"/>
</g>
<defs>
<clipPath id="clip0_858_239">
<rect width="512" height="175.413" fill="white"/>
</clipPath>
</defs>
</svg>
