<svg width="34" height="35" viewBox="0 0 34 35" fill="none" xmlns="http://www.w3.org/2000/svg">
<path d="M26.7303 28.3376C27.6461 26.7607 28.9335 25.5013 30.2636 24.8793L31.1304 24.4739L30.3967 23.8583C28.6078 22.3631 26.7743 20.9942 24.9435 19.7886L24.4194 19.4443L24.0922 19.9768C22.6404 22.334 21.1156 26.9389 21.6 32.1573L21.6312 32.5187L21.964 32.66C22.8443 33.0377 23.7487 33.4019 24.6524 33.742L25.549 34.0821L25.4718 33.1243C25.3542 31.6383 25.7997 29.9365 26.7303 28.3376ZM15.5086 15.418L15.7961 14.8401L15.2033 14.5859C13.3074 13.7765 11.4795 13.1169 9.76786 12.6213L9.28982 12.4836L9.05966 12.9252C7.87553 15.1949 6.51724 18.7775 6.76291 22.9486L6.7792 23.2092L6.97751 23.3782C8.47892 24.6526 10.1623 25.9206 11.9811 27.1511L12.9507 27.8078L12.9273 26.6335C12.8544 22.9566 13.7933 18.8699 15.5086 15.418ZM32.4824 22.4994C35.1332 17.7786 33.8188 14.8038 32.2621 11.2652C30.9597 8.31242 29.4166 4.80999 30.1445 0C24.1778 5.4783 26.4582 9.59544 29.2359 14.6072C30.5808 17.0352 32.0291 19.6445 32.4824 22.4994ZM8.0717 12.1656L7.29833 12.0087C3.63891 11.2689 0.992427 11.6147 0.256517 12.8827C-0.665573 14.4674 0.930749 17.5488 4.52204 21.125L5.46823 22.0657L5.55746 20.7331C5.78197 17.4424 6.85987 14.6435 7.7253 12.8743L8.0717 12.1656ZM23.0667 19.3265L23.3918 18.7961L22.5908 18.3211C20.9371 17.3541 19.2077 16.4403 17.4471 15.6011L16.9081 15.347L16.6418 15.8795C15.9159 17.3307 13.5979 22.5157 14.26 28.3446L14.2933 28.6386L14.7714 28.9325C15.1736 29.1789 15.5766 29.4274 15.9966 29.6723C17.066 30.2985 18.19 30.8949 19.4286 31.4991L20.333 31.9408L20.3019 30.9333C20.1454 25.9484 21.6269 21.6708 23.0667 19.3265ZM32.7431 25.859C32.5207 25.7297 32.2608 25.6644 31.9732 25.6644C30.629 25.6644 28.906 27.0162 27.7813 28.9509C26.3734 31.3741 26.2686 34.0564 27.5512 34.8055C27.7736 34.9347 28.0356 35 28.3288 35C29.6666 35 31.3868 33.6482 32.5107 31.712C33.9194 29.2903 34.025 26.608 32.7431 25.859ZM28.4103 30.0997C28.4103 29.6204 28.7991 29.2292 29.2786 29.2292C29.758 29.2292 30.1469 29.6211 30.1469 30.0997C30.1469 30.5832 29.758 30.9701 29.2786 30.9701C28.7991 30.9694 28.4103 30.5825 28.4103 30.0997ZM29.5959 33.5538C29.1157 33.5538 28.7276 33.1661 28.7276 32.6833C28.7276 32.2041 29.1164 31.8129 29.5959 31.8129C30.0753 31.8129 30.4641 32.2048 30.4641 32.6833C30.4648 33.1668 30.076 33.5538 29.5959 33.5538ZM31.8487 29.3756C31.3664 29.3756 30.9804 28.9858 30.9804 28.5051C30.9804 28.0244 31.3671 27.6347 31.8487 27.6347C32.3268 27.6347 32.7156 28.0244 32.7156 28.5051C32.7163 28.9858 32.3275 29.3756 31.8487 29.3756Z" fill="black"/>
</svg>
