<svg width="30" height="30" viewBox="0 0 30 30" fill="none" xmlns="http://www.w3.org/2000/svg">
<path d="M16.8696 9.55791V4.40881H13.1304V9.55791C11.3497 9.93643 10.003 11.5259 10.003 13.4151V27.3788C10.003 28.5754 10.982 29.5544 12.1786 29.5544H17.8215C19.0181 29.5544 19.9971 28.5755 19.9971 27.3788V13.4151C19.9971 11.5259 18.6503 9.93637 16.8696 9.55791Z" fill="#D1E7F8"/>
<path d="M12.4165 27.3789V13.4152C12.4165 11.7827 13.4224 10.3747 14.8446 9.77779C14.8446 9.77779 15.5439 9.49337 15.5439 8.68144V4.40878H13.1303V9.55788C11.3496 9.9364 10.003 11.5259 10.003 13.4151V27.3788C10.003 28.5754 10.9819 29.5544 12.1785 29.5544H14.5921C13.3955 29.5545 12.4165 28.5755 12.4165 27.3789Z" fill="#B9D8F4"/>
<path d="M18.7044 25.2696H11.2956C10.1173 25.2696 9.15317 26.2337 9.15317 27.412C9.15317 28.5904 10.1173 29.5545 11.2956 29.5545H18.7045C19.8828 29.5545 20.8469 28.5904 20.8469 27.412C20.8468 26.2337 19.8827 25.2696 18.7044 25.2696Z" fill="#B9D8F4"/>
<path d="M12.4165 27.3789V25.2696H11.2955C10.1172 25.2696 9.15311 26.2337 9.15311 27.412C9.15311 28.5904 10.1172 29.5545 11.2955 29.5545H14.592C13.3955 29.5545 12.4165 28.5755 12.4165 27.3789Z" fill="#96C8EF"/>
<path d="M18.7044 26.7548H18.5119V13.4152C18.5119 12.0598 17.4092 10.957 16.0537 10.957H13.9461C12.5907 10.957 11.488 12.0598 11.488 13.4152V26.7548H11.2955C10.9392 26.7548 10.6382 27.0558 10.6382 27.412C10.6382 27.7683 10.9392 28.0692 11.2955 28.0692H18.7043C19.0607 28.0692 19.3616 27.7683 19.3616 27.412C19.3617 27.0557 19.0607 26.7548 18.7044 26.7548Z" fill="#FFE477"/>
<path d="M18.7044 26.7548H18.5119V25.2696H11.4882V26.7548H11.2956C10.9393 26.7548 10.6384 27.0558 10.6384 27.412C10.6384 27.7683 10.9394 28.0692 11.2956 28.0692H18.7045C19.0608 28.0692 19.3617 27.7683 19.3617 27.412C19.3617 27.0557 19.0607 26.7548 18.7044 26.7548Z" fill="#FFDA44"/>
<path d="M12.866 27.4121C12.866 27.1063 13.088 26.8594 13.3761 26.7903C13.3761 26.7903 13.7158 26.7359 13.7158 26.2211V13.4152C13.7158 11.622 16.0739 10.957 16.0537 10.957H13.9461C12.5907 10.957 11.488 12.0598 11.488 13.4152V26.7548H11.2955C10.9392 26.7548 10.6382 27.0558 10.6382 27.412C10.6382 27.7683 10.9392 28.0692 11.2955 28.0692H13.5232C13.167 28.0693 12.866 27.7683 12.866 27.4121Z" fill="#FFDA44"/>
<path d="M12.866 27.4121C12.866 27.1064 13.088 26.8594 13.3761 26.7904C13.3761 26.7904 13.7158 26.7359 13.7158 26.2211V25.2696H11.4881V26.7548H11.2955C10.9392 26.7548 10.6383 27.0558 10.6383 27.412C10.6383 27.7683 10.9393 28.0692 11.2955 28.0692H13.5233C13.167 28.0693 12.866 27.7684 12.866 27.4121Z" fill="#FFCD00"/>
<path d="M16.7298 13.8607C16.4837 13.8607 16.2842 13.6612 16.2842 13.4152C16.2842 13.2881 16.1809 13.1848 16.0538 13.1848C15.8078 13.1848 15.6083 12.9853 15.6083 12.7392C15.6083 12.4931 15.8078 12.2937 16.0538 12.2937C16.6722 12.2937 17.1753 12.7968 17.1753 13.4152C17.1753 13.6613 16.9758 13.8607 16.7298 13.8607Z" fill="#FFDA44"/>
<path d="M16.7298 15.4686C16.4837 15.4686 16.2842 15.2691 16.2842 15.023V14.7408C16.2842 14.4947 16.4837 14.2953 16.7298 14.2953C16.9758 14.2953 17.1753 14.4947 17.1753 14.7408V15.023C17.1753 15.2691 16.9758 15.4686 16.7298 15.4686Z" fill="#FFDA44"/>
<path d="M15 23.0413C13.7748 23.0413 12.7723 22.0389 12.7723 20.8136V18.2126C12.7723 16.9874 13.7748 15.9849 15 15.9849C16.2253 15.9849 17.2277 16.9874 17.2277 18.2126V20.8136C17.2277 22.0389 16.2253 23.0413 15 23.0413Z" fill="white"/>
<path d="M15.9125 18.1997H14.0874C13.8414 18.1997 13.6418 18.3992 13.6418 18.6453C13.6418 18.8914 13.8414 19.0908 14.0874 19.0908H14.5544V20.8564C14.5544 21.1025 14.754 21.3019 15 21.3019C15.246 21.3019 15.4455 21.1025 15.4455 20.8564V19.0908H15.9125C16.1586 19.0908 16.3581 18.8914 16.3581 18.6453C16.3581 18.3991 16.1586 18.1997 15.9125 18.1997Z" fill="#3E3D42"/>
<path d="M16.0675 3.79437H13.9475C13.1428 3.79437 12.4845 3.13595 12.4845 2.33134V1.90865C12.4845 1.10392 13.1429 0.445618 13.9475 0.445618H16.0675C16.8722 0.445618 17.5305 1.10404 17.5305 1.90865V2.33134C17.5306 3.13601 16.8722 3.79437 16.0675 3.79437Z" fill="#806749"/>
<path d="M15.0075 2.33128V1.90858C15.0075 0.706182 16.0675 0.445557 16.0675 0.445557H13.9475C13.1428 0.445557 12.4845 1.10397 12.4845 1.90858V2.33128C12.4845 3.13601 13.1429 3.79431 13.9475 3.79431H16.0675C16.0675 3.79431 15.0075 3.51317 15.0075 2.33128Z" fill="#6A563D"/>
<path d="M16.8697 6.37964H13.1305V9.53884H16.8697V6.37964Z" fill="#FF3F62"/>
<path d="M16.8697 6.37964H13.1305V7.95933H16.8697V6.37964Z" fill="#6DC82A"/>
<path d="M16.5637 3.09705H13.4363C12.8754 3.09705 12.4165 3.55595 12.4165 4.11687C12.4165 4.67779 12.8754 5.13669 13.4363 5.13669H16.5637C17.1246 5.13669 17.5835 4.67779 17.5835 4.11687C17.5835 3.55595 17.1246 3.09705 16.5637 3.09705Z" fill="#B9D8F4"/>
<path d="M14.2861 4.11687C14.2861 3.55595 14.745 3.09705 15.3059 3.09705H13.4363C12.8754 3.09705 12.4165 3.55595 12.4165 4.11687C12.4165 4.67779 12.8754 5.13669 13.4363 5.13669H15.3059C14.745 5.13669 14.2861 4.67773 14.2861 4.11687Z" fill="#96C8EF"/>
<path d="M15 15.5395C13.526 15.5395 12.3267 16.7387 12.3267 18.2127V20.8137C12.3267 22.2877 13.526 23.4869 15 23.4869C16.474 23.4869 17.6733 22.2877 17.6733 20.8137V18.2127C17.6733 16.7387 16.474 15.5395 15 15.5395ZM16.7822 20.8137C16.7822 21.7963 15.9827 22.5958 15 22.5958C14.0173 22.5958 13.2178 21.7963 13.2178 20.8137V18.2127C13.2178 17.2301 14.0173 16.4306 15 16.4306C15.9827 16.4306 16.7822 17.2301 16.7822 18.2127V20.8137Z" fill="black"/>
<path d="M20.4426 25.4981V13.4152C20.4426 11.4784 19.1474 9.76582 17.3151 9.2127V5.37422C17.7424 5.11793 18.0291 4.65029 18.0291 4.11686C18.0291 3.79078 17.9219 3.48937 17.7411 3.24562C17.894 2.96637 17.9762 2.65113 17.9762 2.33133V1.90863C17.9761 0.856172 17.12 0 16.0675 0H13.9475C12.8951 0 12.039 0.856172 12.039 1.90857V2.33127C12.039 2.64621 12.119 2.95752 12.2677 3.23396C12.0816 3.47965 11.971 3.78557 11.971 4.11686C11.971 4.65029 12.2576 5.11799 12.6849 5.37422V9.21275C10.8526 9.766 9.55745 11.4785 9.55745 13.4152V20.1274C9.55745 20.3735 9.75697 20.5729 10.003 20.5729C10.249 20.5729 10.4485 20.3735 10.4485 20.1274V13.4152C10.4485 11.7744 11.6154 10.3354 13.223 9.99369C13.2348 9.99117 16.7653 9.99117 16.777 9.99369C18.3846 10.3355 19.5514 11.7744 19.5514 13.4152V25.7067C19.5514 25.8458 19.6164 25.977 19.7272 26.0613C20.1555 26.3873 20.4012 26.8796 20.4012 27.412C20.4012 28.3477 19.64 29.1088 18.7043 29.1088H11.2956C10.36 29.1088 9.5987 28.3476 9.5987 27.412C9.5987 26.8796 9.84439 26.3873 10.2728 26.0613C10.3835 25.977 10.4485 25.8459 10.4485 25.7067V23.3946C10.4485 23.1485 10.249 22.9491 10.0029 22.9491C9.75691 22.9491 9.5574 23.1485 9.5574 23.3946V25.4981C9.01458 25.9894 8.70761 26.6751 8.70761 27.4121C8.70761 28.8391 9.86859 30 11.2956 30H18.7045C20.1315 30 21.2924 28.839 21.2924 27.412C21.2924 26.6751 20.9853 25.9894 20.4426 25.4981ZM17.138 4.11686C17.138 4.4335 16.8804 4.69113 16.5637 4.69113H13.4362C13.1196 4.69113 12.862 4.4335 12.862 4.11686C12.862 3.80021 13.1195 3.54258 13.4362 3.54258H16.5637C16.8803 3.54258 17.138 3.80021 17.138 4.11686ZM16.4241 5.58223V5.93437H13.5759V5.58223H16.4241ZM13.5759 8.40504H15.306C15.552 8.40504 15.7515 8.20559 15.7515 7.95949C15.7515 7.7134 15.552 7.51395 15.306 7.51395H13.5759V6.82535H16.4241V9.09363H13.5759V8.40504ZM12.9301 1.90857C12.9301 1.34754 13.3866 0.891094 13.9475 0.891094H16.0675C16.6286 0.891094 17.085 1.3476 17.085 1.90857V2.33127C17.085 2.46703 17.0579 2.59799 17.0067 2.7201C16.8668 2.67563 16.7181 2.65148 16.5637 2.65148H13.4362C13.2868 2.65148 13.1425 2.6741 13.0066 2.71588C12.9565 2.59494 12.93 2.46539 12.93 2.33127V1.90857H12.9301Z" fill="black"/>
<path d="M10.0029 22.3943C10.249 22.3943 10.4485 22.1948 10.4485 21.9487V21.5429C10.4485 21.2968 10.249 21.0974 10.0029 21.0974C9.75691 21.0974 9.5574 21.2968 9.5574 21.5429V21.9487C9.5574 22.1948 9.75691 22.3943 10.0029 22.3943Z" fill="black"/>
<path d="M16.0538 10.5115H13.9462C12.3451 10.5115 11.0425 11.8141 11.0425 13.4152V26.3399C10.5618 26.4576 10.1927 26.901 10.1927 27.4121C10.1927 28.0099 10.6977 28.5148 11.2955 28.5148H18.7044C19.3021 28.5148 19.8072 28.0097 19.8072 27.412C19.8072 26.9009 19.438 26.4577 18.9573 26.3399V13.4151C18.9574 11.8141 17.6548 10.5115 16.0538 10.5115ZM18.7044 27.6238H11.2956C11.1847 27.6238 11.0839 27.5229 11.0839 27.4121C11.0839 27.3014 11.1849 27.2004 11.2956 27.2004H11.4881C11.7342 27.2004 11.9337 27.001 11.9337 26.7549V13.4152C11.9337 12.3054 12.8366 11.4026 13.9463 11.4026H16.0539C17.1636 11.4026 18.0665 12.3054 18.0665 13.4152V26.7548C18.0665 27.0009 18.266 27.2004 18.512 27.2004H18.7045C18.8154 27.2004 18.9162 27.3013 18.9162 27.412C18.9162 27.5228 18.8153 27.6238 18.7044 27.6238Z" fill="black"/>
</svg>
