<svg width="30" height="30" viewBox="0 0 30 30" fill="none" xmlns="http://www.w3.org/2000/svg">
<g clip-path="url(#clip0_104_202)">
<path d="M15.0026 5.50974C11.5429 5.50974 9.95755 14.5978 9.88055 17.6753H20.125C20.056 14.5977 18.6272 5.50974 15.0026 5.50974Z" fill="#FF3F62"/>
<path d="M9.88049 17.6752H12.4221C12.4891 14.9949 13.7005 7.75639 16.2977 5.93231C15.9012 5.66202 15.4703 5.50961 15.0025 5.50961C11.5428 5.50973 9.95754 14.5978 9.88049 17.6752Z" fill="#FF0C38"/>
<path d="M9.88049 17.6753H20.1249C20.1026 16.6761 19.9367 15.0434 19.5991 13.2939H10.4451C10.0896 15.0434 9.90551 16.6761 9.88049 17.6753Z" fill="#5EAC24"/>
<path d="M12.9868 13.2939H10.4451C10.0896 15.0434 9.90552 16.6762 9.88062 17.6753H12.4222C12.4471 16.6761 12.6312 15.0433 12.9868 13.2939Z" fill="#47821C"/>
<path d="M10.4451 13.2938H19.5989C19.3761 12.1393 19.0783 10.9344 18.6975 9.82657H11.3766C10.9891 10.9343 10.6796 12.1393 10.4451 13.2938Z" fill="#FFDAAA"/>
<path d="M13.9186 9.82651H11.3766C10.989 10.9343 10.6796 12.1393 10.4451 13.2938H12.9868C13.2214 12.1393 13.531 10.9343 13.9186 9.82651Z" fill="#FFC477"/>
<path d="M27.4269 16.3799H2.57866C1.45226 16.3799 1.51976 17.5399 1.51976 17.5399C1.51976 17.5399 1.51882 21.8425 5.71957 24.1006C5.71957 24.1006 6.37101 24.4902 7.76033 24.4902H22.2454C23.6347 24.4902 24.2861 24.1006 24.2861 24.1006C28.4869 21.8425 28.486 17.5399 28.486 17.5399C28.486 17.5399 28.5534 16.3799 27.4269 16.3799Z" fill="#FFC477"/>
<path d="M7.93675 17.5399C7.93675 17.5399 7.8692 16.3799 8.99566 16.3799H2.57866C1.45226 16.3799 1.51976 17.5399 1.51976 17.5399C1.51976 17.5399 1.51882 21.8425 5.71957 24.1006C5.71957 24.1006 6.37101 24.4902 7.76033 24.4902H14.1773C12.788 24.4902 12.1366 24.1006 12.1366 24.1006C7.93582 21.8425 7.93675 17.5399 7.93675 17.5399Z" fill="#FFB655"/>
<path d="M20.6028 23.1534H19.667C19.4209 23.1534 19.2214 22.9539 19.2214 22.7078C19.2214 22.4617 19.4209 22.2622 19.667 22.2622H20.6028C20.8489 22.2622 21.0484 22.4617 21.0484 22.7078C21.0484 22.9539 20.8489 23.1534 20.6028 23.1534Z" fill="#FFB655"/>
<path d="M18.3598 23.1534H15.2998C15.0537 23.1534 14.8542 22.9539 14.8542 22.7078C14.8542 22.4617 15.0537 22.2622 15.2998 22.2622H18.3598C18.6059 22.2622 18.8054 22.4617 18.8054 22.7078C18.8054 22.9539 18.6059 23.1534 18.3598 23.1534Z" fill="#FFB655"/>
<path d="M27.4269 16.3799H2.57866C1.45226 16.3799 1.51976 17.5399 1.51976 17.5399C1.51976 17.5399 1.51976 17.9239 1.63149 18.5223H28.374C28.4858 17.9238 28.4858 17.5399 28.4858 17.5399C28.4858 17.5399 28.5534 16.3799 27.4269 16.3799Z" fill="#FF3F62"/>
<path d="M8.99566 16.3799H2.57866C1.45226 16.3799 1.51976 17.5399 1.51976 17.5399C1.51976 17.5399 1.51976 17.9239 1.63149 18.5223H8.04849C7.93675 17.9238 7.93675 17.5399 7.93675 17.5399C7.93675 17.5399 7.8692 16.3799 8.99566 16.3799Z" fill="#FF0C38"/>
<path d="M10.6962 21.1089C11.4105 21.1089 11.9896 20.5298 11.9896 19.8156C11.9896 19.1013 11.4105 18.5222 10.6962 18.5222C9.98194 18.5222 9.40289 19.1013 9.40289 19.8156C9.40289 20.5298 9.98194 21.1089 10.6962 21.1089Z" fill="#6DC82A"/>
<path d="M6.04572 21.1089C6.76001 21.1089 7.33905 20.5298 7.33905 19.8156C7.33905 19.1013 6.76001 18.5222 6.04572 18.5222C5.33143 18.5222 4.75238 19.1013 4.75238 19.8156C4.75238 20.5298 5.33143 21.1089 6.04572 21.1089Z" fill="#6DC82A"/>
<path d="M15.0028 21.1089C15.7171 21.1089 16.2961 20.5298 16.2961 19.8156C16.2961 19.1013 15.7171 18.5222 15.0028 18.5222C14.2885 18.5222 13.7095 19.1013 13.7095 19.8156C13.7095 20.5298 14.2885 21.1089 15.0028 21.1089Z" fill="#6DC82A"/>
<path d="M1.73914 21.1089C2.45343 21.1089 3.03248 20.5298 3.03248 19.8156C3.03248 19.1013 2.45343 18.5222 1.73914 18.5222C1.02485 18.5222 0.445801 19.1013 0.445801 19.8156C0.445801 20.5298 1.02485 21.1089 1.73914 21.1089Z" fill="#6DC82A"/>
<path d="M1.6796 19.8157C1.6796 19.3248 1.95311 18.8978 2.356 18.6787C2.17266 18.579 1.96243 18.5223 1.73901 18.5223C1.0247 18.5223 0.445618 19.1014 0.445618 19.8157C0.445618 20.53 1.0247 21.1091 1.73901 21.1091C1.96243 21.1091 2.17261 21.0524 2.356 20.9527C1.95306 20.7335 1.6796 20.3066 1.6796 19.8157Z" fill="#5EAC24"/>
<path d="M5.98624 19.8157C5.98624 19.3248 6.25976 18.8978 6.66264 18.6787C6.47931 18.579 6.26907 18.5223 6.04565 18.5223C5.33134 18.5223 4.75226 19.1014 4.75226 19.8157C4.75226 20.53 5.33134 21.1091 6.04565 21.1091C6.26907 21.1091 6.47925 21.0524 6.66264 20.9527C6.25964 20.7335 5.98624 20.3066 5.98624 19.8157Z" fill="#5EAC24"/>
<path d="M10.6368 19.8157C10.6368 19.3248 10.9103 18.8978 11.3132 18.6787C11.1298 18.579 10.9196 18.5223 10.6962 18.5223C9.98185 18.5223 9.40277 19.1014 9.40277 19.8157C9.40277 20.53 9.98185 21.1091 10.6962 21.1091C10.9196 21.1091 11.1298 21.0524 11.3132 20.9527C10.9103 20.7335 10.6368 20.3066 10.6368 19.8157Z" fill="#5EAC24"/>
<path d="M14.9434 19.8157C14.9434 19.3248 15.2169 18.8978 15.6198 18.6787C15.4365 18.579 15.2262 18.5223 15.0028 18.5223C14.2885 18.5223 13.7094 19.1014 13.7094 19.8157C13.7094 20.53 14.2885 21.1091 15.0028 21.1091C15.2262 21.1091 15.4364 21.0524 15.6198 20.9527C15.2169 20.7335 14.9434 20.3066 14.9434 19.8157Z" fill="#5EAC24"/>
<path d="M23.9599 21.1089C24.6742 21.1089 25.2532 20.5298 25.2532 19.8156C25.2532 19.1013 24.6742 18.5222 23.9599 18.5222C23.2456 18.5222 22.6666 19.1013 22.6666 19.8156C22.6666 20.5298 23.2456 21.1089 23.9599 21.1089Z" fill="#6DC82A"/>
<path d="M19.3093 21.1089C20.0236 21.1089 20.6027 20.5298 20.6027 19.8156C20.6027 19.1013 20.0236 18.5222 19.3093 18.5222C18.595 18.5222 18.016 19.1013 18.016 19.8156C18.016 20.5298 18.595 21.1089 19.3093 21.1089Z" fill="#6DC82A"/>
<path d="M28.2664 21.1089C28.9807 21.1089 29.5598 20.5298 29.5598 19.8156C29.5598 19.1013 28.9807 18.5222 28.2664 18.5222C27.5521 18.5222 26.9731 19.1013 26.9731 19.8156C26.9731 20.5298 27.5521 21.1089 28.2664 21.1089Z" fill="#6DC82A"/>
<path d="M19.25 19.8157C19.25 19.3248 19.5235 18.8978 19.9264 18.6787C19.743 18.579 19.5328 18.5223 19.3094 18.5223C18.5951 18.5223 18.016 19.1014 18.016 19.8157C18.016 20.53 18.5951 21.1091 19.3094 21.1091C19.5328 21.1091 19.743 21.0524 19.9264 20.9527C19.5235 20.7335 19.25 20.3066 19.25 19.8157Z" fill="#5EAC24"/>
<path d="M23.9005 19.8157C23.9005 19.3248 24.1741 18.8978 24.577 18.6787C24.3936 18.579 24.1834 18.5223 23.96 18.5223C23.2456 18.5223 22.6666 19.1014 22.6666 19.8157C22.6666 20.53 23.2456 21.1091 23.96 21.1091C24.1834 21.1091 24.3936 21.0524 24.577 20.9527C24.174 20.7335 23.9005 20.3066 23.9005 19.8157Z" fill="#5EAC24"/>
<path d="M28.2072 19.8157C28.2072 19.3248 28.4807 18.8978 28.8836 18.6787C28.7003 18.579 28.49 18.5223 28.2666 18.5223C27.5523 18.5223 26.9732 19.1014 26.9732 19.8157C26.9732 20.53 27.5523 21.1091 28.2666 21.1091C28.49 21.1091 28.7002 21.0524 28.8836 20.9527C28.4806 20.7335 28.2072 20.3066 28.2072 19.8157Z" fill="#5EAC24"/>
<path d="M29.9981 19.6531C29.9344 18.9688 29.4874 18.4129 28.8789 18.1865C28.9249 17.8383 28.9307 17.6079 28.9313 17.5523C28.9362 17.4331 28.9396 16.8128 28.5163 16.3642C28.3313 16.1681 27.9921 15.9342 27.4269 15.9342H20.4471C20.3178 14.7471 19.9279 11.8687 18.9894 9.31605C17.9521 6.49465 16.6107 5.06409 15.0025 5.06409C13.4632 5.06409 12.1506 6.48182 11.101 9.27796C10.1184 11.8961 9.70299 14.8027 9.56981 15.9342H2.57859C2.01339 15.9342 1.6742 16.168 1.4891 16.3642C1.06588 16.8128 1.06928 17.4331 1.07414 17.5523C1.07484 17.6079 1.08064 17.8388 1.12687 18.1882C0.469218 18.4364 0 19.0722 0 19.8157C0 20.7746 0.780057 21.5546 1.739 21.5546C1.92925 21.5546 2.1123 21.5235 2.2838 21.4667C3.05296 22.7363 4.13325 23.7526 5.50188 24.4896C5.622 24.5586 6.34399 24.9359 7.76026 24.9359H22.2453C23.6617 24.9359 24.3837 24.5585 24.5037 24.4896C25.8724 23.7525 26.9526 22.7362 27.7216 21.4667C27.8932 21.5234 28.0763 21.5547 28.2666 21.5547C28.6712 21.5547 29.0653 21.4125 29.3763 21.1545C29.5657 20.9974 29.5918 20.7164 29.4347 20.5271C29.2775 20.3376 28.9966 20.3116 28.8072 20.4686C28.6536 20.5961 28.4666 20.6634 28.2665 20.6634C27.799 20.6634 27.4188 20.2831 27.4188 19.8157C27.4188 19.3483 27.799 18.968 28.2665 18.968C28.707 18.968 29.0699 19.2981 29.1106 19.7358C29.1334 19.9809 29.3505 20.161 29.5956 20.1382C29.8406 20.1153 30.0208 19.8982 29.9981 19.6531ZM15.0026 5.95535C16.2762 5.95535 17.2977 7.40871 18.0583 9.38097H12.0211C12.7851 7.41867 13.7897 5.95535 15.0026 5.95535ZM10.8132 13.7395H16.5476C16.7937 13.7395 16.9932 13.54 16.9932 13.2939C16.9932 13.0478 16.7937 12.8483 16.5476 12.8483H10.9983C11.1931 11.9733 11.428 11.0951 11.701 10.2723H18.3736C18.6402 11.0914 18.867 11.9682 19.0537 12.8483H17.8548C17.6087 12.8483 17.4092 13.0478 17.4092 13.2939C17.4092 13.54 17.6087 13.7395 17.8548 13.7395H19.2291C19.3664 14.4946 19.474 15.2379 19.5509 15.9343H10.4672C10.55 15.2478 10.6657 14.5028 10.8132 13.7395ZM2.13738 16.9759C2.23289 16.8747 2.3772 16.8255 2.57859 16.8255H27.4269C27.6267 16.8255 27.7702 16.8737 27.8656 16.9732C28.0209 17.135 28.0387 17.7464 27.9936 18.082C27.9722 18.0788 2.01117 18.0767 2.01117 18.0767C1.96687 17.7442 1.95644 17.1677 2.13738 16.9759ZM24.8077 19.8157C24.8077 20.2831 24.4274 20.6634 23.9599 20.6634C23.4924 20.6634 23.1122 20.2831 23.1122 19.8157C23.1122 19.3483 23.4925 18.9679 23.9599 18.9679C24.4274 18.9679 24.8077 19.3482 24.8077 19.8157ZM20.1571 19.8157C20.1571 20.2831 19.7768 20.6634 19.3094 20.6634C18.8418 20.6634 18.4616 20.2831 18.4616 19.8157C18.4616 19.3483 18.8419 18.9679 19.3094 18.9679C19.7769 18.9679 20.1571 19.3482 20.1571 19.8157ZM15.8505 19.8157C15.8505 20.2831 15.4702 20.6634 15.0028 20.6634C14.5353 20.6634 14.1551 20.2831 14.1551 19.8157C14.1551 19.3483 14.5353 18.9679 15.0028 18.9679C15.4702 18.9679 15.8505 19.3482 15.8505 19.8157ZM11.5439 19.8157C11.5439 20.2831 11.1637 20.6634 10.6962 20.6634C10.2287 20.6634 9.84848 20.2831 9.84848 19.8157C9.84848 19.3483 10.2287 18.9679 10.6962 18.9679C11.1637 18.9679 11.5439 19.3482 11.5439 19.8157ZM6.89331 19.8157C6.89331 20.2831 6.51303 20.6634 6.04557 20.6634C5.57811 20.6634 5.19784 20.2831 5.19784 19.8157C5.19784 19.3483 5.57811 18.9679 6.04557 18.9679C6.51303 18.9679 6.89331 19.3482 6.89331 19.8157ZM0.891268 19.8157C0.891268 19.3482 1.27154 18.9679 1.739 18.9679C2.20646 18.9679 2.58673 19.3482 2.58673 19.8157C2.58673 20.2831 2.20646 20.6634 1.739 20.6634C1.27154 20.6634 0.891268 20.2831 0.891268 19.8157ZM24.075 23.7082L24.0615 23.7157C24.0558 23.719 23.4683 24.0447 22.2453 24.0447H7.7602C6.53723 24.0447 5.94971 23.7191 5.94825 23.7182L5.93055 23.7082C4.69247 23.0427 3.71847 22.1253 3.03017 20.9792C3.30837 20.6709 3.47806 20.2628 3.47806 19.8157C3.47806 19.5081 3.39743 19.219 3.25663 18.968H4.52812C4.38737 19.219 4.30669 19.5081 4.30669 19.8157C4.30669 20.7746 5.08675 21.5547 6.04569 21.5547C7.00463 21.5547 7.78469 20.7746 7.78469 19.8157C7.78469 19.5081 7.70407 19.219 7.56327 18.968H9.17875C9.03801 19.219 8.95733 19.5081 8.95733 19.8157C8.95733 20.7746 9.73738 21.5547 10.6963 21.5547C11.6553 21.5547 12.4353 20.7746 12.4353 19.8157C12.4353 19.5081 12.3547 19.219 12.2139 18.968H13.4854C13.3446 19.219 13.264 19.5081 13.264 19.8157C13.264 20.7746 14.044 21.5547 15.003 21.5547C15.9619 21.5547 16.742 20.7746 16.742 19.8157C16.742 19.5081 16.6613 19.219 16.5205 18.968H17.792C17.6513 19.219 17.5706 19.5081 17.5706 19.8157C17.5706 20.7746 18.3506 21.5547 19.3096 21.5547C20.2685 21.5547 21.0486 20.7746 21.0486 19.8157C21.0486 19.5081 20.968 19.219 20.8272 18.968H22.4427C22.3019 19.219 22.2212 19.5081 22.2212 19.8157C22.2212 20.7746 23.0013 21.5547 23.9602 21.5547C24.9192 21.5547 25.6992 20.7746 25.6992 19.8157C25.6992 19.5081 25.6186 19.219 25.4778 18.968H26.7493C26.6085 19.219 26.5279 19.5081 26.5279 19.8157C26.5279 20.2627 26.6975 20.6707 26.9756 20.9791C26.287 22.1251 25.3132 23.0427 24.075 23.7082Z" fill="black"/>
</g>
<defs>
<clipPath id="clip0_104_202">
<rect width="30" height="30" fill="white"/>
</clipPath>
</defs>
</svg>
