<svg width="30" height="30" viewBox="0 0 30 30" fill="none" xmlns="http://www.w3.org/2000/svg">
<path d="M24.0083 0.445547H5.99167C5.99167 0.445547 3.40141 0.478184 3.6771 3.3327L6.01938 27.5828C6.01938 27.5828 6.20981 29.5545 8.05188 29.5545H21.9481C23.7902 29.5545 23.9806 27.5828 23.9806 27.5828L26.3229 3.3327C26.5986 0.478184 24.0083 0.445547 24.0083 0.445547Z" fill="#D1E7F8"/>
<path d="M10.9475 27.5828L8.6053 3.3327C8.32962 0.478184 10.9199 0.445547 10.9199 0.445547H5.99167C5.99167 0.445547 3.40141 0.478184 3.6771 3.3327L6.01938 27.5828C6.01938 27.5828 6.20981 29.5545 8.05188 29.5545H12.9801C11.138 29.5545 10.9475 27.5828 10.9475 27.5828Z" fill="#B9D8F4"/>
<path d="M5.82819 25.6037L6.01938 27.5828C6.01938 27.5828 6.20981 29.5545 8.05188 29.5545H21.9481C23.7902 29.5545 23.9806 27.5828 23.9806 27.5828L24.1718 25.6037H5.82819Z" fill="#B9D8F4"/>
<path d="M6.01938 27.5828C6.01938 27.5828 6.20981 29.5545 8.05188 29.5545H12.98C11.138 29.5544 10.9476 27.5828 10.9476 27.5828L10.7564 25.6037H5.82819L6.01938 27.5828Z" fill="#96C8EF"/>
<path d="M22.8238 21.4731C22.8095 21.4731 22.3366 21.4731 22.3798 20.9847L22.7721 16.9235C22.7958 16.6786 23.0131 16.4994 23.2584 16.5229C23.5033 16.5466 23.6827 16.7643 23.659 17.0093L23.2667 21.0705C23.2445 21.3008 23.0506 21.4731 22.8238 21.4731Z" fill="#B9D8F4"/>
<path d="M22.5767 23.5798C22.3318 23.5561 22.1524 23.3384 22.1762 23.0934L22.2389 22.4445C22.2625 22.1995 22.4793 22.0204 22.7253 22.0438C22.9702 22.0675 23.1496 22.2853 23.1259 22.5302L23.0631 23.1792C23.0194 23.6287 22.5913 23.5812 22.5767 23.5798Z" fill="#B9D8F4"/>
<path d="M23.2313 5.00297C23.3901 3.36234 21.9079 3.35402 21.9079 3.35402H8.08419C8.08419 3.35402 6.60201 3.36234 6.76074 5.00291L7.62476 13.9335C7.62476 13.9335 8.23665 20.3683 15 20.3683C21.7634 20.3683 22.3749 13.9545 22.3749 13.9545C22.3749 13.9545 23.2313 5.00285 23.2313 5.00297Z" fill="#FFA733"/>
<path d="M11.3871 13.9335L10.5231 5.00297C10.3644 3.36234 11.8466 3.35402 11.8466 3.35402H8.08419C8.08419 3.35402 6.60201 3.36234 6.76074 5.00291L7.62476 13.9335C7.62476 13.9335 8.23665 20.3683 15 20.3683C15.69 20.3683 16.3149 20.3006 16.8826 20.1807C11.8817 19.1235 11.3871 13.9335 11.3871 13.9335Z" fill="#FF9811"/>
<path d="M13.1216 16.969C13.9899 16.969 14.6938 16.2651 14.6938 15.3969C14.6938 14.5286 13.9899 13.8247 13.1216 13.8247C12.2534 13.8247 11.5495 14.5286 11.5495 15.3969C11.5495 16.2651 12.2534 16.969 13.1216 16.969Z" fill="#FFF5CC"/>
<path d="M14.4701 15.9695C15.5878 15.9695 16.494 15.0633 16.494 13.9455C16.494 12.8278 15.5878 11.9216 14.4701 11.9216C13.3523 11.9216 12.4461 12.8278 12.4461 13.9455C12.4461 15.0633 13.3523 15.9695 14.4701 15.9695Z" fill="#FFEB99"/>
<path d="M15.9535 14.3269C17.0712 14.3269 17.9774 13.4208 17.9774 12.303C17.9774 11.1852 17.0712 10.279 15.9535 10.279C14.8357 10.279 13.9295 11.1852 13.9295 12.303C13.9295 13.4208 14.8357 14.3269 15.9535 14.3269Z" fill="#FFF5CC"/>
<path d="M17.3489 12.4503C18.4667 12.4503 19.3728 11.5441 19.3728 10.4263C19.3728 9.30855 18.4667 8.4024 17.3489 8.4024C16.2311 8.4024 15.325 9.30855 15.325 10.4263C15.325 11.5441 16.2311 12.4503 17.3489 12.4503Z" fill="#FFEB99"/>
<path d="M18.5911 10.1949C19.4594 10.1949 20.1632 9.49104 20.1632 8.62277C20.1632 7.75451 19.4594 7.05064 18.5911 7.05064C17.7228 7.05064 17.019 7.75451 17.019 8.62277C17.019 9.49104 17.7228 10.1949 18.5911 10.1949Z" fill="#FFF5CC"/>
<path d="M26.1046 0.932637C25.2922 0.0264258 24.0657 0.000703125 24.0083 0H5.98605C5.93425 0.000703125 4.70794 0.0264258 3.89537 0.932637C3.35753 1.5324 3.13499 2.3543 3.23361 3.37559L5.57595 27.6257C5.65523 28.4469 6.2748 30 8.05189 30H21.9481C23.7252 30 24.3448 28.4469 24.4241 27.6256L26.7664 3.37553C26.8651 2.35424 26.6424 1.53234 26.1046 0.932637ZM23.5372 27.5399C23.531 27.604 23.3692 29.1089 21.9481 29.1089H8.05189C7.46115 29.1089 7.03376 28.8678 6.74554 28.3718C6.50999 27.9664 6.46312 27.5423 6.46283 27.5399L6.3188 26.0493H23.6811L23.5372 27.5399ZM25.8795 3.28986L23.7673 25.1582H6.23273L4.12048 3.28986C4.04718 2.53043 4.19296 1.93934 4.55384 1.53305C5.08705 0.932754 5.9472 0.89291 5.99712 0.891094H24.0029C24.0528 0.892852 24.9129 0.932754 25.4461 1.53305C25.807 1.93934 25.9528 2.53037 25.8795 3.28986Z" fill="black"/>
<path d="M21.9078 2.90854H8.08171C7.99892 2.909 7.2583 2.92945 6.74601 3.49682C6.39925 3.8809 6.25494 4.40203 6.31728 5.0458L6.5066 7.0023C6.53027 7.24723 6.74701 7.42635 6.99298 7.40285C7.23785 7.37912 7.41726 7.16139 7.39347 6.91646L7.20416 4.95996C7.1673 4.57875 7.23427 4.28895 7.4032 4.09852C7.64947 3.82096 8.06156 3.80057 8.08898 3.79951H21.903C21.9304 3.80057 22.3425 3.8209 22.5887 4.09852C22.7576 4.28895 22.8246 4.57881 22.7878 4.96002C22.7877 4.96037 22.7877 4.96072 22.7876 4.96107C22.7831 5.00883 21.9398 13.823 21.9314 13.9115C21.9299 13.9268 21.7698 15.4566 20.8281 16.9536C19.5887 18.9238 17.6278 19.9227 15 19.9227C12.3724 19.9227 10.4115 18.9203 9.17191 16.9435C8.22984 15.4411 8.0697 13.9058 8.06818 13.8905L7.68662 9.94652C7.66295 9.7016 7.44632 9.52254 7.20029 9.54598C6.95543 9.56971 6.77601 9.78738 6.7998 10.0324L7.18125 13.9757C7.18793 14.0456 7.35609 15.7076 8.39765 17.3859C9.3682 18.9497 11.3016 20.8139 15.0002 20.8139C18.6984 20.8139 20.6316 18.9557 21.6021 17.397C22.6438 15.7239 22.8119 14.0666 22.8186 13.997L23.6725 5.07111C23.6733 5.06256 23.6739 5.05418 23.6744 5.04586L23.6749 5.04592C23.7372 4.40209 23.5929 3.8809 23.2462 3.49687C22.7338 2.92945 21.9932 2.909 21.9078 2.90854Z" fill="black"/>
<path d="M7.56013 8.63859L7.52192 8.24432C7.49825 7.99939 7.28058 7.82045 7.03548 7.84377C6.79056 7.8675 6.6112 8.08523 6.63499 8.33021L6.67319 8.72449C6.69546 8.95482 6.88941 9.12715 7.1161 9.12715C7.13046 9.12709 7.56101 9.08912 7.56013 8.63859Z" fill="black"/>
<path d="M20.5077 9.25354C20.8554 8.19674 20.2786 7.0541 19.2218 6.70641C19.0171 6.63902 18.8048 6.60486 18.591 6.60486C16.9703 6.60486 16.6613 8.03602 16.6549 8.05787C15.8802 8.28533 15.1089 8.82176 14.906 10.0673C13.6832 10.5148 13.5834 11.6075 13.5728 11.6459C12.8898 11.9129 12.3554 12.4719 12.1244 13.1737C12.0658 13.3521 12.0294 13.5322 12.0123 13.7117C11.6324 13.9609 11.3493 14.3282 11.2053 14.766C11.0369 15.2779 11.0778 15.8248 11.3207 16.3059C11.5636 16.787 11.9793 17.1447 12.4912 17.3132C12.7028 17.3828 12.9174 17.416 13.1286 17.416C13.8469 17.416 14.5219 17.03 14.8822 16.3813C15.1229 16.3403 15.3589 16.2633 15.5832 16.1502C16.172 15.8529 16.7228 15.2377 16.85 14.6022C17.5128 14.343 18.0597 13.8019 18.299 13.0748C18.3433 12.9401 18.3755 12.8017 18.3961 12.6622C19.3736 12.2081 19.6949 11.1986 19.6949 11.1986C19.8095 10.8909 19.8357 10.5562 19.8101 10.2308C20.1283 9.98918 20.3761 9.65344 20.5077 9.25354ZM17.521 8.2708C17.6735 7.80732 18.1035 7.4959 18.5909 7.4959C18.7101 7.4959 18.8286 7.515 18.9432 7.55273C19.5334 7.74691 19.8554 8.38488 19.6613 8.97498C19.5088 9.4384 19.0789 9.74982 18.5915 9.74982C18.4723 9.74982 18.3538 9.73072 18.239 9.69293C17.649 9.49881 17.3269 8.8609 17.521 8.2708ZM12.7697 16.4667C12.4839 16.3726 12.2518 16.1728 12.1162 15.9043C11.9805 15.6356 11.9577 15.3303 12.0517 15.0444C12.0788 14.962 12.1156 14.8848 12.1595 14.8124C12.5743 16.1486 13.7501 16.3076 13.776 16.3153C13.4937 16.5168 13.1239 16.5831 12.7697 16.4667ZM15.1814 15.3547C14.8052 15.5447 14.3774 15.5767 13.9768 15.445C13.1501 15.173 12.6988 14.2791 12.9708 13.4522C13.0718 13.145 13.2639 12.8807 13.515 12.6895C13.6567 13.5731 14.2742 14.3502 15.1813 14.6486C15.3921 14.718 15.6056 14.7568 15.8173 14.7684C15.6659 15.0174 15.4481 15.22 15.1814 15.3547ZM15.4598 13.8022C14.6331 13.5302 14.1817 12.6363 14.4537 11.8096C14.5509 11.5142 14.7293 11.2605 14.9648 11.0719C15.4653 13.1684 17.3942 12.8961 17.4156 12.8955C17.1071 13.6584 16.2527 14.063 15.4598 13.8022ZM18.8484 10.9199C18.7165 11.3204 18.4367 11.6456 18.0603 11.8356C17.684 12.0257 17.2561 12.0577 16.8557 11.9259C16.4552 11.7941 16.13 11.5143 15.9399 11.1379C15.75 10.7615 15.7179 10.3337 15.8497 9.93322C15.9796 9.53842 16.2581 9.21773 16.6159 9.02965C17.0186 10.8514 18.8102 10.632 18.9163 10.6147C18.9038 10.7173 18.8815 10.8192 18.8484 10.9199Z" fill="black"/>
</svg>
