<svg width="30" height="30" viewBox="0 0 30 30" fill="none" xmlns="http://www.w3.org/2000/svg">
<g clip-path="url(#clip0_101_280)">
<path d="M22.1571 13.4181H3.03C1.60951 13.4181 0.447243 14.5804 0.447243 16.0008C0.447243 17.4213 1.60951 18.5836 3.03 18.5836H22.1571C22.6819 18.5836 23.1114 18.1542 23.1114 17.6293V14.3725C23.1114 13.8475 22.6819 13.4181 22.1571 13.4181Z" fill="#806749"/>
<path d="M0.447304 16.0007C0.447304 17.4212 1.60957 18.5835 3.03006 18.5835H22.1572C22.682 18.5835 23.1114 18.154 23.1114 17.6292V15.9592C23.1114 16.4841 22.682 16.9135 22.1572 16.9135H3.03006C1.90154 16.9135 0.936679 16.1796 0.58746 15.1658C0.497108 15.428 0.447304 15.7088 0.447304 16.0007Z" fill="#6A563D"/>
<path d="M17.7436 15.6546H13.5289C13.2819 15.6546 13.0816 15.4543 13.0816 15.2073C13.0816 14.9603 13.2819 14.76 13.5289 14.76H17.7436C17.9907 14.76 18.1909 14.9603 18.1909 15.2073C18.1909 15.4543 17.9907 15.6546 17.7436 15.6546Z" fill="#6A563D"/>
<path d="M20.4076 15.6546H19.3341C19.087 15.6546 18.8868 15.4543 18.8868 15.2073C18.8868 14.9603 19.087 14.76 19.3341 14.76H20.4076C20.6547 14.76 20.8549 14.9603 20.8549 15.2073C20.8549 15.4543 20.6547 15.6546 20.4076 15.6546Z" fill="#6A563D"/>
<path d="M10.7208 15.5204L12.8274 13.4181H6.61559L4.45465 15.579C4.22174 15.8119 4.22174 16.1896 4.45465 16.4225L6.61559 18.5835H12.8274L10.6985 16.4215C10.2884 15.9081 10.7208 15.5204 10.7208 15.5204Z" fill="#FFE477"/>
<path d="M6.61564 18.5835H12.8275L11.183 16.9135H4.94566L6.61564 18.5835Z" fill="#FFDA44"/>
<path d="M8.39994 17.2929C9.11365 17.2929 9.69223 16.7144 9.69223 16.0007C9.69223 15.287 9.11365 14.7084 8.39994 14.7084C7.68623 14.7084 7.10766 15.287 7.10766 16.0007C7.10766 16.7144 7.68623 17.2929 8.39994 17.2929Z" fill="#FFA733"/>
<path d="M24.3639 13.4181C23.675 13.4181 23.1114 13.9817 23.1114 14.6706V17.331C23.1114 18.0199 23.675 18.5835 24.3639 18.5835C25.0528 18.5835 25.6164 18.0199 25.6164 17.331V14.6706C25.6163 13.9817 25.0527 13.4181 24.3639 13.4181Z" fill="#3E3D42"/>
<path d="M24.3639 16.9135C23.675 16.9135 23.1114 16.3499 23.1114 15.661V17.331C23.1114 18.0199 23.675 18.5835 24.3639 18.5835C25.0528 18.5835 25.6164 18.0199 25.6164 17.331V15.661C25.6163 16.3499 25.0527 16.9135 24.3639 16.9135Z" fill="#2D2D30"/>
<path d="M24.594 10.9727H20.4612C19.7395 10.9727 19.149 10.3823 19.149 9.66059C19.149 8.93894 19.7395 8.34844 20.4612 8.34844H24.594C25.3157 8.34844 25.9062 8.93889 25.9062 9.66059C25.9061 10.3823 25.3157 10.9727 24.594 10.9727Z" fill="#B9D8F4"/>
<path d="M12.111 8.3485H10.5428C9.82113 8.3485 9.23062 7.75805 9.23062 7.03635C9.23062 6.31471 9.82107 5.7242 10.5428 5.7242H12.111C12.8327 5.7242 13.4232 6.31465 13.4232 7.03635C13.4232 7.75805 12.8327 8.3485 12.111 8.3485Z" fill="#B9D8F4"/>
<path d="M28.2405 14.0741C27.5189 14.0741 26.9284 13.4837 26.9284 12.762C26.9284 12.0403 27.5188 11.4499 28.2405 11.4499C28.9622 11.4499 29.5526 12.0403 29.5526 12.762C29.5527 13.4837 28.9622 14.0741 28.2405 14.0741Z" fill="#D1E7F8"/>
<path d="M26.9285 8.3485H16.3432C15.6216 8.3485 15.0311 7.75805 15.0311 7.03635C15.0311 6.31471 15.6216 5.7242 16.3432 5.7242H26.9285C27.6501 5.7242 28.2406 6.31465 28.2406 7.03635C28.2405 7.75805 27.6501 8.3485 26.9285 8.3485Z" fill="#D1E7F8"/>
<path d="M26.3534 19.1366C26.2359 19.1366 26.1208 19.1843 26.0373 19.2678C25.9538 19.3507 25.9061 19.4664 25.9061 19.5839C25.9061 19.702 25.9538 19.8171 26.0373 19.9006C26.1207 19.9835 26.2359 20.0312 26.3534 20.0312C26.4714 20.0312 26.5866 19.9835 26.6701 19.9006C26.7531 19.8171 26.8007 19.702 26.8007 19.5839C26.8007 19.4664 26.753 19.3513 26.6701 19.2678C26.5866 19.1843 26.4715 19.1366 26.3534 19.1366Z" fill="black"/>
<path d="M24.3639 21.4427C24.2463 21.4427 24.1313 21.4904 24.0478 21.5739C23.9643 21.6568 23.9166 21.7726 23.9166 21.89C23.9166 22.0081 23.9643 22.1232 24.0478 22.2067C24.1312 22.2896 24.2463 22.3373 24.3639 22.3373C24.4819 22.3373 24.5971 22.2896 24.6806 22.2067C24.7635 22.1232 24.8112 22.0081 24.8112 21.89C24.8112 21.7726 24.7635 21.6574 24.6806 21.5739C24.5971 21.4905 24.4819 21.4427 24.3639 21.4427Z" fill="black"/>
<path d="M26.3534 23.8284C26.2359 23.8284 26.1208 23.8761 26.0373 23.9596C25.9538 24.0425 25.9061 24.1583 25.9061 24.2757C25.9061 24.3938 25.9538 24.5089 26.0373 24.5924C26.1207 24.6754 26.2359 24.723 26.3534 24.723C26.4714 24.723 26.5866 24.6754 26.6701 24.5924C26.7531 24.5089 26.8007 24.3938 26.8007 24.2757C26.8007 24.1583 26.753 24.0431 26.6701 23.9596C26.5866 23.8761 26.4715 23.8284 26.3534 23.8284Z" fill="black"/>
<path d="M26.0637 14.6705C26.0637 13.7333 25.3011 12.9707 24.3639 12.9707C23.913 12.9707 23.5028 13.1476 23.1982 13.4351C22.9415 13.1502 22.5699 12.9707 22.1571 12.9707H3.03C2.78297 12.9707 2.5827 13.171 2.5827 13.418C2.5827 13.6651 2.78297 13.8653 3.03 13.8653H5.53564L4.1383 15.2627C3.73143 15.6696 3.73143 16.3318 4.1383 16.7388L5.53564 18.1361H3.03006C1.85262 18.1361 0.894668 17.1782 0.894668 16.0007C0.894668 15.3284 1.22068 14.6861 1.76672 14.2825C1.96547 14.1357 2.00742 13.8556 1.86059 13.6569C1.71381 13.4582 1.43373 13.4162 1.23498 13.563C0.461602 14.1346 0 15.0459 0 16.0007C0 17.6715 1.35932 19.0308 3.03006 19.0308H22.1572C22.57 19.0308 22.9415 18.8513 23.1983 18.5664C23.5028 18.8539 23.913 19.0308 24.3639 19.0308C25.3012 19.0308 26.0637 18.2682 26.0637 17.331V14.6705H26.0637ZM4.771 16.1062C4.71287 16.0481 4.71287 15.9534 4.771 15.8953L6.80092 13.8653H11.7461L10.4118 15.1969C9.6324 16.0007 10.3689 16.7242 10.3797 16.7353L11.7592 18.1361H6.80092L4.771 16.1062ZM22.6641 17.6292C22.6641 17.9087 22.4367 18.1361 22.1571 18.1361H13.0147L11.0343 16.1251C10.8848 16.0008 11.0265 15.8473 11.0368 15.8371L13.0124 13.8654H22.1571C22.4366 13.8654 22.664 14.0928 22.664 14.3723L22.6641 17.6292ZM25.169 17.331C25.169 17.7749 24.8078 18.1361 24.3639 18.1361C23.9199 18.1361 23.5587 17.7749 23.5587 17.331V14.6705C23.5587 14.2266 23.9199 13.8654 24.3639 13.8654C24.8078 13.8654 25.169 14.2266 25.169 14.6705V17.331Z" fill="black"/>
<path d="M16.3432 8.7958H18.9292C18.7843 9.05139 18.7017 9.34646 18.7017 9.66059C18.7017 10.6308 19.4909 11.42 20.4611 11.42H24.594C25.5642 11.42 26.3535 10.6308 26.3535 9.66059C26.3535 9.34646 26.2707 9.05133 26.126 8.7958H26.9286C27.8988 8.7958 28.688 8.00654 28.688 7.03635C28.688 6.06615 27.8987 5.27695 26.9285 5.27695C26.6814 5.27695 26.4812 5.47723 26.4812 5.72426C26.4812 5.97129 26.6814 6.17156 26.9285 6.17156C27.4053 6.17156 27.7933 6.55951 27.7933 7.03635C27.7933 7.51318 27.4053 7.90113 26.9285 7.90113H24.594C24.3469 7.90113 24.1467 8.10141 24.1467 8.34844C24.1467 8.59547 24.3469 8.79574 24.594 8.79574C25.0709 8.79574 25.4588 9.18369 25.4588 9.66053C25.4588 10.1374 25.0709 10.5253 24.594 10.5253H20.4611C19.9843 10.5253 19.5963 10.1374 19.5963 9.66053C19.5963 9.18369 19.9843 8.79574 20.4611 8.79574C20.7082 8.79574 20.9084 8.59547 20.9084 8.34844C20.9084 8.10141 20.7082 7.90113 20.4611 7.90113H16.3433C15.8664 7.90113 15.4785 7.51318 15.4785 7.03635C15.4785 6.55951 15.8664 6.17156 16.3433 6.17156H25.4176C25.6646 6.17156 25.8649 5.97129 25.8649 5.72426C25.8649 5.47723 25.6646 5.27695 25.4176 5.27695H16.3432C15.3731 5.27695 14.5837 6.06621 14.5837 7.03641C14.5837 8.0066 15.3731 8.7958 16.3432 8.7958Z" fill="black"/>
<path d="M10.5428 8.7958H12.111C13.0812 8.7958 13.8705 8.00654 13.8705 7.03635C13.8705 6.06615 13.0812 5.27689 12.111 5.27689H10.5428C9.57263 5.27689 8.78332 6.06615 8.78332 7.03635C8.78332 8.00654 9.57258 8.7958 10.5428 8.7958ZM10.5428 6.17156H12.111C12.5879 6.17156 12.9758 6.55951 12.9758 7.03635C12.9758 7.51318 12.5879 7.90113 12.111 7.90113H10.5428C10.0659 7.90113 9.67799 7.51318 9.67799 7.03635C9.67799 6.55951 10.0659 6.17156 10.5428 6.17156Z" fill="black"/>
<path d="M28.2405 11.0026C27.2704 11.0026 26.4811 11.7919 26.4811 12.762C26.4811 13.7321 27.2704 14.5215 28.2405 14.5215C29.2107 14.5215 30 13.7321 30 12.762C30 11.7919 29.2107 11.0026 28.2405 11.0026ZM28.2405 13.6268C27.7637 13.6268 27.3758 13.2388 27.3758 12.762C27.3758 12.2852 27.7637 11.8972 28.2405 11.8972C28.7174 11.8972 29.1053 12.2852 29.1053 12.762C29.1054 13.2388 28.7174 13.6268 28.2405 13.6268Z" fill="black"/>
</g>
<defs>
<clipPath id="clip0_101_280">
<rect width="30" height="30" fill="white"/>
</clipPath>
</defs>
</svg>
