<svg width="30" height="30" viewBox="0 0 30 30" fill="none" xmlns="http://www.w3.org/2000/svg">
<g clip-path="url(#clip0_104_102)">
<path d="M7.6169 12.9373C7.71504 12.9541 7.81822 12.9506 7.9207 12.9234C8.30268 12.8222 8.53031 12.4305 8.42901 12.0486L6.24299 3.80056C6.19072 3.60327 6.05672 3.43774 5.87467 3.34558L2.40147 1.58694C2.04879 1.40835 1.61842 1.5495 1.43988 1.90206C1.26141 2.25462 1.4025 2.68511 1.755 2.86358L4.94197 4.47726L7.04578 12.4152C7.11985 12.6946 7.34947 12.8914 7.6169 12.9373Z" fill="#FFE477"/>
<path d="M7.04877 6.84113L8.42889 12.0486C8.53014 12.4306 8.30256 12.8223 7.92064 12.9235C7.81816 12.9506 7.71498 12.9542 7.61683 12.9373C7.34941 12.8915 7.11978 12.6946 7.04578 12.4152L5.75021 7.52697C5.75021 7.52697 6.0648 6.97765 7.04877 6.84113Z" fill="#FFD422"/>
<path d="M12.5431 12.154L12.6224 10.3897C12.6827 9.05003 11.5863 9.03561 11.5863 9.03561H1.68392C1.68392 9.03561 0.587577 9.04997 0.647752 10.3897L1.39582 27.0271C1.39599 27.0319 1.45049 28.3919 2.69965 28.3919H10.5705C11.8197 28.3919 11.8742 27.0319 11.8744 27.0271L12.4396 14.4558" fill="#D1E7F8"/>
<path d="M3.24351 27.027L2.49551 10.3897C2.43527 9.05003 3.53168 9.03561 3.53168 9.03561H1.68392C1.68392 9.03561 0.587577 9.04997 0.647752 10.3897L1.39582 27.0271C1.39599 27.0319 1.45049 28.3919 2.69965 28.3919H4.54734C3.29818 28.3918 3.24375 27.0319 3.24351 27.027Z" fill="#B9D8F4"/>
<path d="M2.8899 26.0942C2.8899 26.0942 2.92535 26.9184 3.60797 26.9184H9.80484C10.4874 26.9184 10.5229 26.0942 10.5229 26.0942L11.1218 12.6372C11.1628 11.7249 10.3283 11.7193 10.3283 11.7193H3.08449C3.08449 11.7193 2.25 11.7249 2.29101 12.6372L2.8899 26.0942Z" fill="#FFE477"/>
<path d="M5.37773 24.2637C4.69517 24.2637 4.65967 23.4395 4.65967 23.4395L4.13807 11.7193H3.08449C3.08449 11.7193 2.25 11.7249 2.29101 12.6372L2.8899 26.0942C2.8899 26.0942 2.92535 26.9184 3.60797 26.9184H9.80484C10.4874 26.9184 10.5229 26.0942 10.5229 26.0942L10.6044 24.2637H5.37773Z" fill="#FFD422"/>
<path d="M6.38027 15.8383C6.58366 15.8383 6.74853 15.6734 6.74853 15.47C6.74853 15.2667 6.58366 15.1018 6.38027 15.1018C6.17688 15.1018 6.01201 15.2667 6.01201 15.47C6.01201 15.6734 6.17688 15.8383 6.38027 15.8383Z" fill="#FFD422"/>
<path d="M5.35524 14.1701C5.58121 14.1701 5.7644 13.9869 5.7644 13.761C5.7644 13.535 5.58121 13.3518 5.35524 13.3518C5.12926 13.3518 4.94608 13.535 4.94608 13.761C4.94608 13.9869 5.12926 14.1701 5.35524 14.1701Z" fill="#FFD422"/>
<path d="M8.32617 13.737C8.52956 13.737 8.69443 13.5721 8.69443 13.3688C8.69443 13.1654 8.52956 13.0005 8.32617 13.0005C8.12279 13.0005 7.95791 13.1654 7.95791 13.3688C7.95791 13.5721 8.12279 13.737 8.32617 13.737Z" fill="#FFD422"/>
<path d="M9.43137 15.2532C9.65734 15.2532 9.84053 15.07 9.84053 14.844C9.84053 14.618 9.65734 14.4348 9.43137 14.4348C9.2054 14.4348 9.02221 14.618 9.02221 14.844C9.02221 15.07 9.2054 15.2532 9.43137 15.2532Z" fill="#FFD422"/>
<path d="M7.74826 25.6182C8.69526 25.6182 9.46295 24.8505 9.46295 23.9035C9.46295 22.9565 8.69526 22.1888 7.74826 22.1888C6.80127 22.1888 6.03358 22.9565 6.03358 23.9035C6.03358 24.8505 6.80127 25.6182 7.74826 25.6182Z" fill="#FFA733"/>
<path d="M5.94117 22.9365C7.06424 22.9365 7.97467 22.0261 7.97467 20.903C7.97467 19.78 7.06424 18.8695 5.94117 18.8695C4.8181 18.8695 3.90768 19.78 3.90768 20.903C3.90768 22.0261 4.8181 22.9365 5.94117 22.9365Z" fill="#FFA733"/>
<path d="M21.369 12.3972C21.2694 12.3972 21.1683 12.3763 21.0719 12.3322C20.7125 12.1679 20.5544 11.7433 20.7188 11.384L24.2675 3.62413C24.3524 3.43856 24.5125 3.29805 24.7075 3.23794L28.4279 2.09178C28.8057 1.97536 29.206 2.18723 29.3224 2.56487C29.4387 2.94251 29.2269 3.34299 28.8493 3.4593L25.4354 4.51106L22.0201 11.9791C21.8998 12.242 21.6403 12.3972 21.369 12.3972Z" fill="#FFE477"/>
<path d="M22.9593 6.48474L20.7188 11.3839C20.5543 11.7433 20.7125 12.1678 21.0718 12.3322C21.1683 12.3763 21.2694 12.3971 21.3689 12.3971C21.6402 12.3971 21.8998 12.242 22.0199 11.979L24.1231 7.38017C24.1232 7.38029 23.906 6.78562 22.9593 6.48474Z" fill="#FFD422"/>
<path d="M27.7052 12.154L27.7846 10.3897C27.8448 9.05003 26.7484 9.03561 26.7484 9.03561H16.8461C16.8461 9.03561 15.7497 9.04997 15.8099 10.3897L16.558 27.0271C16.5581 27.0319 16.6126 28.3919 17.8618 28.3919H25.7327C26.9818 28.3919 27.0363 27.0319 27.0365 27.0271L27.6018 14.4558" fill="#D1E7F8"/>
<path d="M18.4057 27.027L17.6576 10.3897C17.5974 9.05003 18.6938 9.03561 18.6938 9.03561H16.8461C16.8461 9.03561 15.7498 9.04997 15.8099 10.3897L16.558 27.0271C16.5582 27.0319 16.6127 28.3919 17.8618 28.3919H19.7095C18.4603 28.3918 18.4059 27.0319 18.4057 27.027Z" fill="#B9D8F4"/>
<path d="M18.052 26.0942C18.052 26.0942 18.0875 26.9184 18.7701 26.9184H24.967C25.6495 26.9184 25.685 26.0942 25.685 26.0942L26.2839 12.6372C26.3249 11.7249 25.4905 11.7193 25.4905 11.7193H18.2466C18.2466 11.7193 17.4121 11.7249 17.4531 12.6372L18.052 26.0942Z" fill="#A4E276"/>
<path d="M20.5399 24.2637C19.8574 24.2637 19.8219 23.4395 19.8219 23.4395L19.3002 11.7193H18.2467C18.2467 11.7193 17.4122 11.7249 17.4532 12.6372L18.0521 26.0942C18.0521 26.0942 18.0875 26.9184 18.7702 26.9184H24.967C25.6496 26.9184 25.6851 26.0942 25.6851 26.0942L25.7666 24.2637H20.5399Z" fill="#7ED63E"/>
<path d="M21.6425 14.8021C21.8459 14.8021 22.0107 14.6373 22.0107 14.4339C22.0107 14.2305 21.8459 14.0656 21.6425 14.0656C21.4391 14.0656 21.2742 14.2305 21.2742 14.4339C21.2742 14.6373 21.4391 14.8021 21.6425 14.8021Z" fill="#7ED63E"/>
<path d="M23.1301 16.1808C23.356 16.1808 23.5392 15.9976 23.5392 15.7716C23.5392 15.5456 23.356 15.3625 23.1301 15.3625C22.9041 15.3625 22.7209 15.5456 22.7209 15.7716C22.7209 15.9976 22.9041 16.1808 23.1301 16.1808Z" fill="#7ED63E"/>
<path d="M23.4878 13.737C23.6912 13.737 23.856 13.5721 23.856 13.3688C23.856 13.1654 23.6912 13.0005 23.4878 13.0005C23.2844 13.0005 23.1195 13.1654 23.1195 13.3688C23.1195 13.5721 23.2844 13.737 23.4878 13.737Z" fill="#7ED63E"/>
<path d="M24.5936 15.2532C24.8196 15.2532 25.0028 15.07 25.0028 14.844C25.0028 14.618 24.8196 14.4348 24.5936 14.4348C24.3676 14.4348 24.1844 14.618 24.1844 14.844C24.1844 15.07 24.3676 15.2532 24.5936 15.2532Z" fill="#7ED63E"/>
<path d="M22.7249 25.6182C23.6719 25.6182 24.4396 24.8505 24.4396 23.9035C24.4396 22.9565 23.6719 22.1888 22.7249 22.1888C21.7779 22.1888 21.0102 22.9565 21.0102 23.9035C21.0102 24.8505 21.7779 25.6182 22.7249 25.6182Z" fill="#5EAC24"/>
<path d="M20.7173 23.6457C21.8404 23.6457 22.7508 22.7353 22.7508 21.6122C22.7508 20.4892 21.8404 19.5787 20.7173 19.5787C19.5943 19.5787 18.6838 20.4892 18.6838 21.6122C18.6838 22.7353 19.5943 23.6457 20.7173 23.6457Z" fill="#5EAC24"/>
<path d="M14.4223 11.8767C14.3123 11.8767 14.2007 11.8536 14.0942 11.8049C13.6974 11.6235 13.5228 11.1548 13.7044 10.7579L17.6228 2.18977C17.7165 1.98481 17.8932 1.82971 18.1086 1.76332L22.2166 0.497758C22.6338 0.369203 23.0757 0.603168 23.2042 1.02012C23.3326 1.43713 23.0987 1.87928 22.6818 2.00766L18.9124 3.16893L15.1412 11.415C15.0085 11.7053 14.7218 11.8767 14.4223 11.8767Z" fill="#FFE477"/>
<path d="M16.1783 5.34827L13.7043 10.7579C13.5228 11.1547 13.6974 11.6235 14.0941 11.8049C14.2006 11.8537 14.3123 11.8767 14.4222 11.8767C14.7217 11.8767 15.0084 11.7053 15.1411 11.415L17.4633 6.33715C17.4633 6.33715 17.2236 5.68049 16.1783 5.34827Z" fill="#FFD422"/>
<path d="M20.6733 11.6081L20.7609 9.65999C20.8275 8.18073 19.6168 8.16486 19.6168 8.16486H8.68295C8.68295 8.16486 7.4724 8.18073 7.53885 9.65999L8.36484 28.0305C8.36502 28.0359 8.42514 29.5375 9.80449 29.5375H18.4953C19.8746 29.5375 19.9347 28.0358 19.9349 28.0305L20.5591 14.1496" fill="#D1E7F8"/>
<path d="M10.4051 28.0305L9.57908 9.65999C9.51252 8.18073 10.7232 8.16486 10.7232 8.16486H8.68301C8.68301 8.16486 7.47246 8.18073 7.53891 9.65999L8.3649 28.0305C8.36508 28.0359 8.4252 29.5375 9.80455 29.5375H11.8447C10.4654 29.5375 10.4053 28.0359 10.4051 28.0305Z" fill="#B9D8F4"/>
<path d="M10.0145 27.0005C10.0145 27.0005 10.0537 27.9105 10.8074 27.9105H17.6499C18.4036 27.9105 18.4428 27.0005 18.4428 27.0005L19.104 12.1416C19.1493 11.1343 18.2279 11.1282 18.2279 11.1282H10.2295C10.2295 11.1282 9.30808 11.1343 9.35338 12.1416L10.0145 27.0005Z" fill="#FF3F62"/>
<path d="M12.7616 24.9793C12.0079 24.9793 11.9687 24.0693 11.9687 24.0693L11.3928 11.1282H10.2295C10.2295 11.1282 9.30808 11.1343 9.35338 12.1417L10.0146 27.0006C10.0146 27.0006 10.0537 27.9106 10.8075 27.9106H17.65C18.4037 27.9106 18.4428 27.0006 18.4428 27.0006L18.5328 24.9793H12.7616Z" fill="#FF0C38"/>
<path d="M13.0153 13.855C13.2399 13.855 13.422 13.6729 13.422 13.4483C13.422 13.2237 13.2399 13.0417 13.0153 13.0417C12.7907 13.0417 12.6087 13.2237 12.6087 13.4483C12.6087 13.6729 12.7907 13.855 13.0153 13.855Z" fill="#FF0C38"/>
<path d="M15.5231 13.9353C15.7726 13.9353 15.9749 13.733 15.9749 13.4835C15.9749 13.2339 15.7726 13.0316 15.5231 13.0316C15.2735 13.0316 15.0713 13.2339 15.0713 13.4835C15.0713 13.733 15.2735 13.9353 15.5231 13.9353Z" fill="#FF0C38"/>
<path d="M14.2365 15.5559C14.4611 15.5559 14.6432 15.3739 14.6432 15.1493C14.6432 14.9247 14.4611 14.7426 14.2365 14.7426C14.0119 14.7426 13.8299 14.9247 13.8299 15.1493C13.8299 15.3739 14.0119 15.5559 14.2365 15.5559Z" fill="#FF0C38"/>
<path d="M17.2376 15.03C17.4872 15.03 17.6895 14.8277 17.6895 14.5782C17.6895 14.3287 17.4872 14.1264 17.2376 14.1264C16.9881 14.1264 16.7858 14.3287 16.7858 14.5782C16.7858 14.8277 16.9881 15.03 17.2376 15.03Z" fill="#FF0C38"/>
<path d="M14.1255 26.093C15.7128 26.093 16.9996 24.8062 16.9996 23.2189C16.9996 21.6316 15.7128 20.3448 14.1255 20.3448C12.5382 20.3448 11.2514 21.6316 11.2514 23.2189C11.2514 24.8062 12.5382 26.093 14.1255 26.093Z" fill="#D80027"/>
<path d="M15.3528 21.3037C16.5929 21.3037 17.5982 20.2984 17.5982 19.0583C17.5982 17.8182 16.5929 16.813 15.3528 16.813C14.1127 16.813 13.1074 17.8182 13.1074 19.0583C13.1074 20.2984 14.1127 21.3037 15.3528 21.3037Z" fill="#D80027"/>
<path d="M29.7643 2.42872C29.6717 2.12802 29.4675 1.88134 29.1895 1.73427C28.9114 1.58714 28.5925 1.55702 28.2917 1.64978L24.5712 2.79593C24.2504 2.89478 23.9863 3.12651 23.8445 3.43689L21.5704 8.57304H21.0132C20.9444 8.44032 20.8593 8.31956 20.7574 8.21157C20.2983 7.72501 19.6908 7.70315 19.617 7.70228H17.3477L19.2467 3.54991L22.8179 2.4497C23.4779 2.24638 23.8496 1.54396 23.6462 0.883838C23.4428 0.22378 22.7404 -0.147646 22.0804 0.0556157L21.4306 0.255831C21.1864 0.331065 21.0495 0.589932 21.1247 0.834092C21.2 1.07825 21.4591 1.21513 21.7029 1.13995L22.3528 0.939737C22.5253 0.886534 22.7089 0.983682 22.7621 1.15624C22.8152 1.3288 22.7181 1.51243 22.5455 1.56558L18.7761 2.7269C18.6499 2.76575 18.5464 2.85663 18.4916 2.97657L16.3304 7.70228H8.67686C8.62031 7.70304 8.18772 7.71944 7.77926 8.00749L6.69012 3.68222C6.60422 3.35767 6.38315 3.08462 6.08362 2.93286L2.61053 1.17429C2.32969 1.03208 2.01035 1.00782 1.71135 1.10579C1.41235 1.20382 1.16947 1.41235 1.02727 1.69319C0.885119 1.97386 0.860862 2.29319 0.958889 2.5922C1.05692 2.89126 1.26545 3.13419 1.54617 3.27628L4.54072 4.79251L5.4235 8.5731H1.67783C1.61461 8.57397 1.04737 8.59431 0.619338 9.048C0.305862 9.38017 0.159963 9.8386 0.185686 10.4105L0.933694 27.0476C0.961291 27.6725 1.36588 28.8544 2.69959 28.8544H8.08723C8.34363 29.4521 8.88199 30.0001 9.80443 30.0001H18.4952C19.4186 30.0001 19.9571 29.4511 20.2131 28.8544H25.7326C26.9791 28.8544 27.4717 27.7719 27.4985 27.0478L28.0638 14.4766C28.0753 14.2214 27.8776 14.0052 27.6225 13.9937C27.3669 13.9824 27.1511 14.1798 27.1396 14.435L26.5744 27.0063C26.5664 27.1604 26.4884 27.9292 25.7327 27.9292H20.4025L20.4272 27.3809H24.967C25.7929 27.3809 26.1253 26.6233 26.1471 26.1147L26.746 12.6578C26.7692 12.1425 26.5761 11.8259 26.41 11.6509C26.0494 11.2712 25.5494 11.257 25.4905 11.2566H21.1523L21.2232 9.68058C21.2259 9.61835 21.2264 9.55771 21.2255 9.498H26.7425C26.7448 9.498 26.9815 9.51452 27.1402 9.6828C27.2752 9.82583 27.3366 10.0567 27.3225 10.3688L27.2432 12.1331C27.2316 12.3883 27.4293 12.6045 27.6844 12.6159C27.6915 12.6162 27.6986 12.6164 27.7056 12.6164C27.9514 12.6164 28.1562 12.4228 28.1673 12.1746L28.2466 10.4104C28.2724 9.83849 28.1265 9.38005 27.813 9.04788C27.385 8.59419 26.8178 8.5738 26.7485 8.57292H22.5821L24.6882 3.8164C24.7181 3.75089 24.7748 3.7012 24.8437 3.67999L28.5642 2.53384C28.629 2.51392 28.6973 2.52048 28.7569 2.55189C28.8166 2.58347 28.8604 2.63644 28.8803 2.70101C28.9002 2.76552 28.8937 2.83396 28.8621 2.89366C28.8305 2.95343 28.7776 2.9972 28.713 3.01712L25.2991 4.06888C25.1723 4.1079 25.0685 4.19948 25.0138 4.3203L23.5376 7.5848C23.4324 7.81753 23.5358 8.09157 23.7686 8.19687C24.0012 8.30204 24.2753 8.19874 24.3806 7.96595L25.7709 4.89153L28.9853 3.90124C29.286 3.8086 29.5327 3.6044 29.6798 3.32626C29.827 3.04823 29.857 2.72942 29.7643 2.42872ZM22.6866 23.1463C22.8035 22.9962 22.8998 22.8367 22.9773 22.6713C22.9793 22.6717 22.9812 22.6724 22.9832 22.6728C23.1792 22.7134 23.3583 22.7983 23.5155 22.9253C23.7756 23.1356 23.9382 23.4345 23.9736 23.7671C24.0088 24.0997 23.9125 24.4262 23.7022 24.6863C23.4919 24.9464 23.193 25.1091 22.8604 25.1443C22.5278 25.1797 22.2015 25.0832 21.9413 24.8729C21.706 24.6828 21.5476 24.4142 21.4954 24.1166C21.4876 24.073 21.4738 24.032 21.4553 23.994C21.9343 23.8453 22.3683 23.5549 22.6866 23.1463ZM21.9568 22.5778C21.6359 22.9896 21.1288 23.2113 20.6161 23.1794L20.7572 20.0415C21.0918 20.0493 21.414 20.1635 21.683 20.373C22.3663 20.9054 22.4892 21.8944 21.9568 22.5778ZM7.65756 22.5969L7.77346 25.1745C7.07895 25.1519 6.52061 24.5813 6.52061 23.8814C6.52061 23.2209 7.01789 22.6754 7.65756 22.5969ZM5.39244 4.37204C5.36133 4.23886 5.27291 4.1263 5.15092 4.0646L1.96395 2.45087C1.90365 2.42034 1.85889 2.36825 1.83791 2.30409C1.81688 2.23987 1.82203 2.17132 1.85262 2.11108C1.88315 2.05079 1.93535 2.00591 1.99946 1.98487C2.06367 1.9639 2.13217 1.96917 2.19258 1.99964L5.66567 3.75827C5.72994 3.79085 5.7774 3.84944 5.7944 3.91355L6.96762 8.5731H6.37342L5.39244 4.37204ZM1.85795 27.0062L1.10989 10.3689C1.07596 9.61407 1.5027 9.50808 1.69278 9.49817H7.07455C7.07362 9.55788 7.07408 9.61853 7.07684 9.68075L7.14768 11.2568H3.08145C3.02561 11.2572 2.52563 11.2714 2.16504 11.6511C1.99893 11.826 1.80586 12.1426 1.82924 12.6615L2.25223 20.7291C2.26512 20.976 2.46938 21.1675 2.71365 21.1675C2.72186 21.1675 2.73006 21.1673 2.73826 21.1668C2.99344 21.1535 3.18938 20.9358 3.17596 20.6807L2.75315 12.6165C2.74641 12.4659 2.77324 12.3564 2.83295 12.2913C2.91856 12.1979 3.07272 12.1835 3.09293 12.1821H7.18934L7.4942 18.9627C6.53432 18.2273 5.15168 18.2802 4.25151 19.1416C4.18108 19.2089 4.1141 19.2809 4.05235 19.3556C3.88951 19.5525 3.91723 19.8441 4.1141 20.0068C4.31092 20.1696 4.60248 20.142 4.76537 19.9451C4.80422 19.8981 4.84647 19.8526 4.89106 19.8101C5.51684 19.2111 6.51328 19.2331 7.11217 19.859C7.53076 20.2964 7.66067 20.9213 7.45119 21.4899C7.42606 21.5582 7.4185 21.6285 7.42547 21.6964C6.87797 21.794 6.39955 22.0926 6.06932 22.5133C5.60836 22.5403 5.16135 22.3647 4.84225 22.0313C4.57975 21.757 4.42559 21.3975 4.40801 21.0189C4.39617 20.7636 4.17879 20.5648 3.92449 20.5783C3.66926 20.5901 3.47203 20.8066 3.48381 21.0617C3.51176 21.6636 3.75686 22.235 4.17375 22.6709C4.56914 23.084 5.08805 23.3438 5.64451 23.4184C5.61264 23.5678 5.59553 23.7228 5.59553 23.8817C5.59553 25.1057 6.59121 26.1016 7.81524 26.1019L7.83117 26.456H3.60797C3.38947 26.456 3.3566 26.142 3.35203 26.0726L3.22535 22.5791C3.2161 22.3238 2.99871 22.1236 2.74635 22.1336C2.491 22.1429 2.29155 22.3573 2.3008 22.6126L2.42778 26.1142C2.44969 26.6234 2.78209 27.3811 3.60797 27.3811H7.87272L7.89738 27.9294H2.69965C1.94373 27.9292 1.86592 27.1602 1.85795 27.0062ZM19.3082 28.5996C19.1391 28.9239 18.8808 29.0749 18.4953 29.0749H9.80449C9.41901 29.0749 9.16072 28.9239 8.99162 28.5996C8.84391 28.3163 8.82715 28.0133 8.82697 28.0098L8.00092 9.63927C7.98498 9.28565 8.05512 9.02122 8.20922 8.85312C8.39238 8.65343 8.66098 8.62958 8.69221 8.62753H19.6069C19.6349 8.62935 19.9061 8.65202 20.0905 8.85317C20.2446 9.02128 20.3147 9.28577 20.2989 9.63933L19.4728 28.0104C19.4727 28.0133 19.4559 28.3163 19.3082 28.5996ZM25.4875 12.1819C25.4889 12.1819 25.6498 12.1941 25.7392 12.2882C25.8009 12.3532 25.8287 12.4637 25.8219 12.6167L25.2231 26.0702C25.2192 26.1346 25.188 26.4559 24.9671 26.4559H20.4688L20.5746 24.1042C20.5787 24.1044 20.5827 24.1044 20.5867 24.1046C20.5755 24.1598 20.5738 24.2179 20.5842 24.2768C20.6752 24.7945 20.9505 25.2618 21.3597 25.5925C21.7509 25.9087 22.2283 26.0768 22.7243 26.0768C22.8018 26.0768 22.8798 26.0727 22.9579 26.0644C23.5362 26.0031 24.0561 25.7203 24.4216 25.2679C24.7873 24.8156 24.9549 24.248 24.8935 23.6697C24.8322 23.0914 24.5494 22.5716 24.0971 22.206C23.8379 21.9964 23.5308 21.8486 23.2073 21.7757C23.2584 20.9786 22.9278 20.1702 22.2515 19.6433C21.829 19.3142 21.3239 19.1335 20.7987 19.1176L21.1106 12.1821H25.4874V12.1819H25.4875Z" fill="black"/>
<path d="M18.2279 10.6656H10.2264C10.1668 10.6659 9.63352 10.6811 9.24908 11.0859C9.07213 11.2723 8.86647 11.6102 8.89143 12.1658L9.35842 21.0739C9.37172 21.3291 9.58951 21.5245 9.84457 21.5116C10.0997 21.4982 10.2957 21.2806 10.2823 21.0254L9.81545 12.1208C9.80737 11.9409 9.84141 11.8083 9.91664 11.7265C10.0254 11.6084 10.2158 11.5921 10.2372 11.5907H18.2248C18.2267 11.5907 18.4242 11.6037 18.5374 11.723C18.6149 11.8047 18.6501 11.9385 18.6419 12.121L17.9807 26.9769C17.976 27.0555 17.938 27.448 17.6498 27.448H10.8074C10.522 27.448 10.4819 27.0626 10.4766 26.9791L10.3368 23.1208C10.3277 22.8712 10.1225 22.675 9.87481 22.675C9.86912 22.675 9.86338 22.675 9.85776 22.6753C9.6024 22.6845 9.40295 22.899 9.41221 23.1543L9.55231 27.0205C9.57574 27.5642 9.92924 28.3731 10.8073 28.3731H17.6498C18.5279 28.3731 18.8814 27.5641 18.9047 27.0211L19.566 12.1624C19.5908 11.6102 19.3852 11.2723 19.2082 11.0859C18.8238 10.6812 18.2906 10.666 18.2279 10.6656Z" fill="black"/>
<path d="M19.9014 1.67355C19.9465 1.67355 19.9925 1.66687 20.0378 1.65292L20.4682 1.52032C20.7123 1.44515 20.8493 1.18622 20.7741 0.942121C20.6989 0.69802 20.44 0.561027 20.1959 0.636262L19.7654 0.768859C19.5213 0.844035 19.3843 1.10296 19.4595 1.34706C19.5208 1.54581 19.7038 1.67355 19.9014 1.67355Z" fill="black"/>
<path d="M15.2873 7.29656C15.3496 7.32504 15.415 7.33857 15.4794 7.33857C15.6548 7.33857 15.8226 7.2382 15.9003 7.06822L18.0435 2.38189C18.0823 2.29711 18.1556 2.23277 18.2448 2.20523L18.7402 2.0526C18.9844 1.97736 19.1213 1.7185 19.0461 1.47433C18.9709 1.23023 18.7119 1.09336 18.4679 1.16848L17.9725 1.32111C17.6313 1.42623 17.3505 1.67267 17.2022 1.99723L15.0591 6.68344C14.9527 6.91582 15.0549 7.19027 15.2873 7.29656Z" fill="black"/>
<path d="M10.7885 23.2191C10.7885 25.059 12.2853 26.5557 14.1251 26.5557C15.965 26.5557 17.4618 25.059 17.4618 23.2191C17.4618 22.5089 17.2381 21.8504 16.8584 21.3088C17.6005 20.8116 18.0605 19.9707 18.0605 19.0581C18.0605 17.565 16.8457 16.3502 15.3526 16.3502C15.2471 16.3502 15.1407 16.3564 15.0363 16.3686C14.7826 16.3981 14.6007 16.6277 14.6303 16.8814C14.6598 17.1352 14.8897 17.3168 15.1432 17.2874C15.2122 17.2794 15.2827 17.2754 15.3525 17.2754C16.3355 17.2754 17.1353 18.0751 17.1353 19.0581C17.1353 19.7108 16.7777 20.3075 16.2131 20.6192C15.641 20.1588 14.9149 19.8824 14.125 19.8824C14.0091 19.8824 13.8945 19.8884 13.7815 19.9001C13.6433 19.6424 13.5696 19.3531 13.5696 19.0581C13.5696 18.6273 13.7252 18.2115 14.0079 17.8873C14.1758 17.6948 14.1557 17.4026 13.9632 17.2346C13.7706 17.0667 13.4784 17.0867 13.3105 17.2793C12.881 17.7721 12.6444 18.4038 12.6444 19.0581C12.6444 19.4283 12.7206 19.793 12.8658 20.1299C11.6487 20.6279 10.7885 21.8247 10.7885 23.2191ZM14.1252 20.8076C15.455 20.8076 16.5367 21.8893 16.5367 23.219C16.5367 24.5488 15.455 25.6305 14.1252 25.6305C12.7955 25.6305 11.7137 24.5488 11.7137 23.219C11.7137 21.8894 12.7955 20.8076 14.1252 20.8076Z" fill="black"/>
</g>
<defs>
<clipPath id="clip0_104_102">
<rect width="30" height="30" fill="white"/>
</clipPath>
</defs>
</svg>
