<svg width="144" height="144" viewBox="0 0 144 144" fill="none" xmlns="http://www.w3.org/2000/svg">
<g clip-path="url(#clip0_1978_1003)">
<path d="M101.125 35.875L106.875 27.375H109.375C114.292 30.125 117.5 32.6667 119 35C120.167 37 119.958 38.25 118.375 38.75H92.5V57.875H108.75L113.875 49H116.25C120.833 50.9167 124.125 53.1667 126.125 55.75C128.125 58.0833 128.208 59.7083 126.375 60.625H67.5C64.6667 60.625 61.9167 60.6667 59.25 60.75C57 60.8333 55.0833 60.9583 53.5 61.125L52.75 59.375H31.25C29.1667 59.375 27.0833 59.375 25 59.375C22.5833 59.4583 20.5417 59.625 18.875 59.875L17.75 56C19.3333 56.0833 21.0417 56.1667 22.875 56.25C25.2083 56.4167 27.7083 56.5 30.375 56.5H41.375L46.25 49.375H48.625C51.625 50.7917 54.0417 52.2917 55.875 53.875C57.5417 55.4583 58.375 56.75 58.375 57.75L64.375 57.875H79.125V38.75H74.625L63.5 39.25L61.75 35.625L74 35.875H79.125C79.2083 30.4583 79.1667 26.2083 79 23.125C78.8333 20.125 78.5417 18.1667 78.125 17.25L79.625 16C89.0417 16.5833 94.375 17.7083 95.625 19.375C96.4583 20.4583 95.4167 22.2917 92.5 24.875V35.875H101.125ZM65.375 86.875C72.125 88.2083 77.1667 91.0833 80.5 95.5C83.5 99.5 84.1667 103.083 82.5 106.25C81.8333 107.583 80.7917 108.667 79.375 109.5C78.0417 110.25 76.625 110.625 75.125 110.625C73.625 110.625 72.4167 110.208 71.5 109.375C70.4167 108.375 69.9583 107.042 70.125 105.375C70.0417 102.125 69.4583 99 68.375 96C67.125 92.5833 65.5417 90.1667 63.625 88.75L65.375 86.875ZM93.125 81.5V72.25C93.125 69.5833 93 67.5417 92.75 66.125C92.5 64.7917 92.0417 63.4167 91.375 62L92.625 60.75C101.208 61.6667 106.417 63 108.25 64.75C109.833 66.1667 109.208 68.25 106.375 71V81.5H109.875L115.125 73.125H117.75C122.417 75.9583 125.458 78.4583 126.875 80.625C128.042 82.625 127.708 83.875 125.875 84.375H106.5L106.875 116.375C106.875 119.625 105.875 122.333 103.875 124.5C101.875 126.75 98.8333 128.417 94.75 129.5C91.5 130.083 89.4167 130.083 88.5 129.5C87.8333 129.167 87.2917 127.958 86.875 125.875V125.375C86.2083 122.875 85.125 120.917 83.625 119.5C82.375 118.333 80.5417 117.208 78.125 116.125L78.875 114L84 114.375C87.8333 114.708 90.25 114.833 91.25 114.75C92.5833 114.5 93.25 113.75 93.25 112.5V84.375H65.875L55 84.625L53.5 80.75C55.3333 81 58.0417 81.2083 61.625 81.375C63.625 81.4583 66.3333 81.5 69.75 81.5H93.125ZM41.625 25.625L47.625 16.875H50.375C54.4583 19.9583 57.2083 22.4167 58.625 24.25C60.2917 26.3333 60.25 27.6667 58.5 28.25H32.375C30.875 28.25 29.375 28.2917 27.875 28.375C26.875 28.375 25.4167 28.4583 23.5 28.625L20.375 29L19.25 24.875C20.5 25.0417 22.3333 25.2083 24.75 25.375C26.9167 25.5417 29 25.625 31 25.625H41.625ZM45.75 41.625L50.625 33.875H53.25C57.5833 36.0417 60.5833 38.1667 62.25 40.25C63.8333 42.3333 63.7083 43.75 61.875 44.5H28.5C26.9167 44.5 24.8333 44.5417 22.25 44.625C20.5833 44.7083 18.25 44.8333 15.25 45L14.125 41C15.4583 41.1667 17.375 41.2917 19.875 41.375C22.375 41.5417 24.9583 41.625 27.625 41.625H45.75ZM41.75 71.875L46.5 64.375H49C53.1667 66.4583 56.0417 68.5 57.625 70.5C59.0417 72.4167 59 73.75 57.5 74.5H28.25L19.75 75.125L18.625 71.125C20.0417 71.375 21.6667 71.5417 23.5 71.625C25.3333 71.7917 27.4167 71.875 29.75 71.875H41.75ZM42.625 89.625L45.375 84.25H48C54.4167 86.5 58.0833 88.5 59 90.25C59.8333 91.75 58.7083 93.6667 55.625 96L56.25 111.25C56.4167 115.25 56.5 117.875 56.5 119.125C56.5 121.042 56.2917 122.417 55.875 123.25C55.5417 124.083 54.8333 124.667 53.75 125C53.0833 125.25 51.7083 125.5 49.625 125.75C46.875 125.75 45.1667 125.417 44.5 124.75C44 124.333 43.7917 123.125 43.875 121.125L44 118.25H30.875V121.5C30.9583 125.083 30.7083 127.25 30.125 128C29.5417 128.917 27.75 129.542 24.75 129.875C21.5833 129.958 19.6667 129.583 19 128.75C18.5 128.083 18.3333 126.042 18.5 122.625L18.75 119L18.875 110C19.125 102.25 19.2083 97.0833 19.125 94.5C18.9583 90.4167 18.5 87.75 17.75 86.5L19.625 85.25L32 89.625H42.625ZM43.625 92.5H30.875V115.375H43.625V92.5Z" fill="black"/>
</g>
<defs>
<clipPath id="clip0_1978_1003">
<rect width="144" height="144" fill="white"/>
</clipPath>
</defs>
</svg>
