<svg width="100" height="100" viewBox="0 0 100 100" fill="none" xmlns="http://www.w3.org/2000/svg">
<path d="M16.7222 1.61133L20.4999 5.3891L16.7222 9.16688" stroke="black" stroke-width="2" stroke-linecap="round" stroke-linejoin="round"/>
<path d="M3.5 11.0553V9.16645C3.5 8.16452 3.89801 7.20363 4.60649 6.49516C5.31496 5.78669 6.27585 5.38867 7.27778 5.38867H20.5" stroke="black" stroke-width="2" stroke-linecap="round" stroke-linejoin="round"/>
<path d="M7.27778 22.3895L3.5 18.6117L7.27778 14.834" stroke="black" stroke-width="2" stroke-linecap="round" stroke-linejoin="round"/>
<path d="M20.5 12.9434V14.8323C20.5 15.8342 20.102 16.7951 19.3935 17.5036C18.685 18.212 17.7242 18.61 16.7222 18.61H3.5" stroke="black" stroke-width="2" stroke-linecap="round" stroke-linejoin="round"/>
<path d="M43 20L33 12L43 4V20Z" fill="black" stroke="black" stroke-width="2" stroke-linecap="round" stroke-linejoin="round"/>
<path d="M29 19V5" stroke="black" stroke-width="2" stroke-linecap="round" stroke-linejoin="round"/>
<path d="M57 43V29" stroke="white" stroke-width="3" stroke-linecap="round" stroke-linejoin="round"/>
<path d="M63 43V29" stroke="white" stroke-width="3" stroke-linecap="round" stroke-linejoin="round"/>
<path d="M53 4L63 12L53 20V4Z" fill="black" stroke="black" stroke-width="2" stroke-linecap="round" stroke-linejoin="round"/>
<path d="M67 5V19" stroke="black" stroke-width="2" stroke-linecap="round" stroke-linejoin="round"/>
<path d="M74 20.15L76.347 14.45M76.347 14.45L77.325 12.075L80.65 4L83.975 12.075L84.953 14.45M76.347 14.45H84.953M84.953 14.45L87.3 20.15M85.4 4.95H93M87.3 9.7H93M89.2 14.45H93M91.1 19.2H93" stroke="black" stroke-width="2" stroke-linecap="round" stroke-linejoin="round"/>
<path d="M16.2222 26L19.9999 29.7778L16.2222 33.5556" stroke="black" stroke-width="2" stroke-linecap="round" stroke-linejoin="round"/>
<path d="M3 35.444V33.5551C3 32.5532 3.39801 31.5923 4.10649 30.8838C4.81496 30.1753 5.77585 29.7773 6.77778 29.7773H20" stroke="black" stroke-width="2" stroke-linecap="round" stroke-linejoin="round"/>
<path d="M6.77778 46.7783L3 43.0005L6.77778 39.2227" stroke="black" stroke-width="2" stroke-linecap="round" stroke-linejoin="round"/>
<path d="M20 37.334V39.2229C20 40.2248 19.602 41.1857 18.8935 41.8942C18.185 42.6027 17.2242 43.0007 16.2222 43.0007H3" stroke="black" stroke-width="2" stroke-linecap="round" stroke-linejoin="round"/>
<path d="M11.3719 40.3883V32.5883L12.0559 33.2963H9.59595V31.9883H12.9319V40.3883H11.3719Z" fill="black"/>
<path d="M18 68L21 65L18 62" stroke="black" stroke-width="2" stroke-linecap="round" stroke-linejoin="round"/>
<path d="M18 52L21 55L18 58" stroke="black" stroke-width="2" stroke-linecap="round" stroke-linejoin="round"/>
<path d="M21 55H17C15.8744 55 14.8357 55.3719 14 55.9996M3 65H7C8.12561 65 9.16434 64.6281 10 64.0004" stroke="black" stroke-width="2" stroke-linecap="round" stroke-linejoin="round"/>
<path d="M3 55H7C9.76142 55 12 57.2386 12 60C12 62.7614 14.2386 65 17 65H21" stroke="black" stroke-width="2" stroke-linecap="round" stroke-linejoin="round"/>
<path d="M44.2512 34.7152L30.7512 26.4745C30.5263 26.332 30.2666 26.2541 30.0005 26.2491C29.7343 26.2441 29.4719 26.3124 29.2418 26.4464C29.0084 26.5745 28.8138 26.7631 28.6785 26.9924C28.5433 27.2217 28.4723 27.4833 28.4731 27.7495V44.2495C28.4723 44.5158 28.5433 44.7773 28.6785 45.0067C28.8138 45.236 29.0084 45.4246 29.2418 45.5527C29.4719 45.6867 29.7343 45.755 30.0005 45.75C30.2666 45.745 30.5263 45.667 30.7512 45.5245L44.2512 37.2839C44.4725 37.1504 44.6555 36.962 44.7826 36.737C44.9096 36.512 44.9764 36.258 44.9764 35.9995C44.9764 35.7411 44.9096 35.4871 44.7826 35.2621C44.6555 35.037 44.4725 34.8487 44.2512 34.7152V34.7152Z" fill="white"/>
</svg>
