<svg width="99" height="52" viewBox="0 0 99 52" fill="none" xmlns="http://www.w3.org/2000/svg">
<path d="M53 4L63 12L53 20V4Z" fill="black" stroke="black" stroke-width="2" stroke-linecap="round" stroke-linejoin="round"/>
<path d="M67 5V19" stroke="black" stroke-width="2" stroke-linecap="round" stroke-linejoin="round"/>
<path d="M43 20L33 12L43 4L43 20Z" fill="black" stroke="black" stroke-width="2" stroke-linecap="round" stroke-linejoin="round"/>
<path d="M29 19L29 5" stroke="black" stroke-width="2" stroke-linecap="round" stroke-linejoin="round"/>
<path d="M17.2222 2L20.9999 5.77778L17.2222 9.55556" stroke="black" stroke-width="2" stroke-linecap="round" stroke-linejoin="round"/>
<path d="M4 11.4442V9.5553C4 8.55338 4.39801 7.59248 5.10649 6.88401C5.81496 6.17554 6.77585 5.77753 7.77778 5.77753H21" stroke="black" stroke-width="2" stroke-linecap="round" stroke-linejoin="round"/>
<path d="M7.77778 22.778L4 19.0002L7.77778 15.2224" stroke="black" stroke-width="2" stroke-linecap="round" stroke-linejoin="round"/>
<path d="M21 13.3331V15.222C21 16.2239 20.602 17.1848 19.8935 17.8933C19.185 18.6018 18.2242 18.9998 17.2222 18.9998H4" stroke="black" stroke-width="2" stroke-linecap="round" stroke-linejoin="round"/>
<path d="M75 20.15L77.347 14.45M88.3 20.15L85.953 14.45M85.953 14.45L84.975 12.075L81.65 4L78.325 12.075L77.347 14.45M85.953 14.45H77.3465M86.4 4.95H94M88.3 9.7H94M90.2 14.45H94M92.1 19.2H94" stroke="black" stroke-width="2" stroke-linecap="round" stroke-linejoin="round"/>
<path d="M17.2222 26L20.9999 29.7778L17.2222 33.5556" stroke="black" stroke-width="2" stroke-linecap="round" stroke-linejoin="round"/>
<path d="M4 35.4442V33.5553C4 32.5534 4.39801 31.5925 5.10649 30.884C5.81496 30.1755 6.77585 29.7775 7.77778 29.7775H21" stroke="black" stroke-width="2" stroke-linecap="round" stroke-linejoin="round"/>
<path d="M7.77778 46.778L4 43.0002L7.77778 39.2224" stroke="black" stroke-width="2" stroke-linecap="round" stroke-linejoin="round"/>
<path d="M21 37.3331V39.222C21 40.2239 20.602 41.1848 19.8935 41.8933C19.185 42.6018 18.2242 42.9998 17.2222 42.9998H4" stroke="black" stroke-width="2" stroke-linecap="round" stroke-linejoin="round"/>
<path d="M12.9854 33.1161V40.3889H12.1048V34.0394H12.0621L10.2866 35.2184V34.3235L12.1048 33.1161H12.9854Z" fill="black"/>
<path d="M42 43.9998L45 40.9998L42 37.9998" stroke="black" stroke-width="2" stroke-linecap="round" stroke-linejoin="round"/>
<path d="M42 28L45 31L42 34" stroke="black" stroke-width="2" stroke-linecap="round" stroke-linejoin="round"/>
<path d="M45 31H41C39.8744 31 38.8357 31.3719 38 31.9996M27 41H31C32.1256 41 33.1643 40.6281 34 40.0004" stroke="black" stroke-width="2" stroke-linecap="round" stroke-linejoin="round"/>
<path d="M27 31H31C33.7614 31 36 33.2386 36 36C36 38.7614 38.2386 41 41 41H45" stroke="black" stroke-width="2" stroke-linecap="round" stroke-linejoin="round"/>
<path d="M68.2512 34.7152L54.7512 26.4745C54.5263 26.332 54.2666 26.2541 54.0005 26.2491C53.7343 26.2441 53.4719 26.3124 53.2418 26.4464C53.0084 26.5745 52.8138 26.7631 52.6785 26.9924C52.5433 27.2217 52.4723 27.4833 52.4731 27.7495V44.2495C52.4723 44.5158 52.5433 44.7773 52.6785 45.0067C52.8138 45.236 53.0084 45.4246 53.2418 45.5527C53.4719 45.6867 53.7343 45.755 54.0005 45.75C54.2666 45.745 54.5263 45.667 54.7512 45.5245L68.2512 37.2839C68.4725 37.1504 68.6555 36.962 68.7826 36.737C68.9096 36.512 68.9764 36.258 68.9764 35.9995C68.9764 35.7411 68.9096 35.4871 68.7826 35.2621C68.6555 35.037 68.4725 34.8487 68.2512 34.7152V34.7152Z" fill="black"/>
</svg>
